<svg width="129" height="116" viewBox="0 0 129 116" fill="none" xmlns="http://www.w3.org/2000/svg">
<path d="M19.1404 19.8831C18.1733 20.2657 16.2204 20.7369 13.3238 20.7369C5.30307 20.7369 0.700165 16.2656 0.700165 10.5609C0.700165 3.76954 6.56532 0.175781 13.8566 0.175781C16.6833 0.175781 18.1768 0.614238 19.1388 1.02855L18.2478 5.08999C17.1768 4.70555 16.04 4.35542 14.0769 4.35542C10.6045 4.35542 6.92126 6.02918 6.92126 10.4859C6.92126 14.4727 9.85814 16.5814 14.1059 16.5814C15.7884 16.5814 16.9303 16.3139 18.2482 15.8236L19.1404 19.8831Z" fill="#0056A2"/>
<path d="M32.4584 5.21244C30.2977 5.21244 28.2067 6.00642 27.1421 7.28176H27.0766V0.24707L21.6415 1.77214V20.1254H27.0766V11.5523C27.0766 10.3144 28.0695 8.98285 29.9739 8.98285C32.0111 8.98285 32.7959 10.2826 32.7959 12.1734V20.1257H38.2358V11.5653C38.2358 7.19534 35.9233 5.21244 32.4584 5.21244Z" fill="#0056A2"/>
<path d="M46.4351 14.3354C46.635 16.1944 48.5374 17.1822 51.477 17.2035C53.2485 17.2146 55.3081 16.7971 56.6801 16.1419L57.5002 19.5705C55.4351 20.4112 53.076 20.7368 50.6746 20.7368C44.205 20.7368 40.7373 17.5831 40.7373 12.7515C40.7373 8.07783 44.4661 5.06201 50.0537 5.06201C55.8122 5.06201 58.3936 8.4985 58.3936 12.8043C58.3936 13.258 58.3246 13.997 58.2626 14.3354H46.4351ZM52.9651 11.2004C52.9651 10.1208 52.3152 8.23288 49.7989 8.23288C47.5927 8.23288 46.5523 9.77225 46.3979 11.2004H52.9651Z" fill="#0056A2"/>
<path d="M64.7824 20.1253L58.7769 5.67529H64.7734L68.036 15.8967H68.1458L71.4088 5.67529H77.4076L71.4025 20.1253H64.7824Z" fill="#0056A2"/>
<path d="M78.9487 10.4275C78.9487 8.30163 78.8663 6.91477 78.7546 5.67502H83.875L84.0302 8.36105H84.1678C85.0639 6.23516 86.7836 5.42751 88.5523 5.34618C89.3932 5.30646 89.8483 5.35476 90.3689 5.43641V9.66148C89.8706 9.58237 88.882 9.48928 88.187 9.54107C86.0953 9.69707 84.8295 10.9301 84.4743 12.3497C84.403 12.6439 84.3661 12.9706 84.3661 13.3528V20.125H78.9506V10.4275H78.9487Z" fill="#0056A2"/>
<path d="M109.47 12.8996C109.47 17.6356 105.949 20.7368 100.244 20.7368C94.5383 20.7368 91.0154 17.6356 91.0154 12.8996C91.0154 8.16298 94.5383 5.06201 100.244 5.06201C105.949 5.06201 109.47 8.1633 109.47 12.8996ZM103.835 12.8996C103.835 10.5481 102.837 8.50136 100.244 8.50136C97.6477 8.50136 96.6555 10.5478 96.6555 12.8996C96.6555 15.2533 97.6477 17.2969 100.244 17.2969C102.838 17.2969 103.835 15.2533 103.835 12.8996Z" fill="#0056A2"/>
<path d="M111.887 10.2823C111.887 8.47891 111.805 6.93922 111.69 5.67532H116.811L116.928 7.69699H117.038C117.747 6.75685 119.623 5.2124 122.551 5.2124C126.134 5.2124 128.474 7.19531 128.474 11.449V20.1257H123.043V12.113C123.043 10.2537 122.256 8.9825 120.291 8.9825C118.784 8.9825 117.848 9.8413 117.501 10.6645C117.372 10.966 117.32 11.3756 117.32 11.7893V20.1253H111.887V10.2823Z" fill="#0056A2"/>
<path d="M0.894196 58.4316V23.9683L64.6912 41.2009L0.894196 58.4316Z" fill="url(#paint0_linear_204_583)"/>
<path d="M0.910248 58.4344L64.6911 75.6651L128.469 58.4344V23.9727L64.6911 41.2012L0.910248 58.4344Z" fill="url(#paint1_linear_204_583)"/>
<path d="M0.897975 98.4911L0.892487 64.0166L64.6851 81.2483L0.897975 98.4911Z" fill="url(#paint2_linear_204_583)"/>
<path d="M128.472 64.0166L64.6731 81.2429L0.905121 98.4847L64.6852 115.72L128.472 98.4793V64.0166Z" fill="url(#paint3_linear_204_583)"/>
<defs>
<linearGradient id="paint0_linear_204_583" x1="64.6912" y1="41.1999" x2="35.8679" y2="-12.1563" gradientUnits="userSpaceOnUse">
<stop stop-color="#06549B"/>
<stop offset="0.55" stop-color="#2FA1D3"/>
<stop offset="0.9" stop-color="#2FA1D3"/>
</linearGradient>
<linearGradient id="paint1_linear_204_583" x1="0.910246" y1="54.9881" x2="30.6709" y2="-44.1538" gradientUnits="userSpaceOnUse">
<stop stop-color="#1371B1"/>
<stop offset="0.05" stop-color="#2FA1D3"/>
<stop offset="0.45" stop-color="#2FA1D3"/>
<stop offset="0.6" stop-color="#06569C"/>
</linearGradient>
<linearGradient id="paint2_linear_204_583" x1="64.6851" y1="81.2538" x2="25.8268" y2="38.111" gradientUnits="userSpaceOnUse">
<stop stop-color="#9D1A36"/>
<stop offset="0.4" stop-color="#9D1A36"/>
<stop offset="0.6" stop-color="#E6192F"/>
</linearGradient>
<linearGradient id="paint3_linear_204_583" x1="0.905119" y1="95.0386" x2="30.6756" y2="-4.12174" gradientUnits="userSpaceOnUse">
<stop stop-color="#A21C38"/>
<stop offset="0.13" stop-color="#E6192F"/>
<stop offset="0.45" stop-color="#E6192F"/>
<stop offset="0.6" stop-color="#A71C37"/>
</linearGradient>
</defs>
</svg>
