<svg width="156" height="107" viewBox="0 0 156 107" fill="none" xmlns="http://www.w3.org/2000/svg">
<path d="M140.739 70.4479H61.3525C57.979 70.4479 55.2341 67.703 55.2341 64.3295V22.2366C55.2341 18.863 57.979 16.1182 61.3525 16.1182H140.739C144.112 16.1182 146.857 18.863 146.857 22.2366V64.3448C146.857 67.7184 144.112 70.4479 140.739 70.4479Z" fill="white"/>
<path d="M66.858 82.5468C64.3125 80.768 62.1964 79.9859 60.5863 80.216C59.3442 80.4 58.4088 81.1667 57.3967 81.9794C56.3233 82.8535 55.1119 83.8502 53.4558 83.8962C51.907 83.9422 50.3276 83.0068 48.2114 80.7987C44.8225 77.2564 38.3821 68.3778 38.4741 63.4861C38.4281 62.7041 38.4894 60.9713 39.7008 59.6372C40.5136 58.7478 41.633 58.2571 42.8904 58.2571C43.1357 58.1805 43.9178 57.7818 44.5772 56.739C45.4206 55.4049 46.1873 52.8748 45.0679 48.3358C43.1051 40.3312 39.9155 39.0125 39.4708 38.8591H39.2868C38.1981 38.8591 34.1498 39.0585 31.1596 41.88C28.7214 44.1955 27.51 47.7991 27.5867 52.6141C27.7554 63.5475 32.1103 74.4042 40.5442 84.8776C44.4698 89.7539 55.5566 99.6753 64.7726 99.1999C71.581 98.8472 73.4672 92.4681 73.5898 92.0694L73.6358 91.8548C73.7278 91.226 73.8965 87.4691 66.858 82.5468Z" fill="#E6E6E6"/>
<path d="M65.0944 37.0495H75.5371C73.375 39.7637 71.6575 42.8459 70.3694 46.2808C69.0814 49.731 68.3913 53.1046 68.3146 56.4168H72.7463C72.7309 54.3007 73.0836 51.9085 73.789 49.2097C74.4944 46.5262 75.5065 43.9806 76.8559 41.6038C78.19 39.2116 79.5087 37.3869 80.8122 36.1141V32.7865H65.0944V37.0495ZM100.057 39.0583H94.6591L91.4236 43.8426L88.3567 39.0583H82.7443L88.7554 47.4769L82.4836 56.4168H87.866L91.4236 51.0498L94.9658 56.4168H100.594L94.1837 47.2929L100.057 39.0583ZM112.416 48.2283C113.858 46.8942 114.87 45.8821 115.422 45.1767C116.265 44.1033 116.879 43.0912 117.262 42.1098C117.645 41.1284 117.845 40.101 117.845 39.0276C117.845 37.1262 117.17 35.5467 115.821 34.274C114.471 33.0012 112.616 32.3572 110.254 32.3572C108.092 32.3572 106.298 32.9092 104.856 34.0133C103.415 35.1174 102.556 36.9268 102.296 39.457L106.865 39.917C106.957 38.5829 107.279 37.6169 107.847 37.0342C108.414 36.4515 109.181 36.1601 110.132 36.1601C111.098 36.1601 111.864 36.4361 112.416 36.9882C112.968 37.5402 113.244 38.3223 113.244 39.3497C113.244 40.2697 112.922 41.2205 112.294 42.1559C111.818 42.8459 110.561 44.1493 108.491 46.0815C105.915 48.4736 104.197 50.3904 103.323 51.8318C102.449 53.2733 101.928 54.8067 101.759 56.4168H117.86V52.1539H108.736C108.981 51.7398 109.288 51.3105 109.671 50.8811C110.055 50.4518 110.975 49.5624 112.416 48.2283ZM134.406 32.3572H130.542L120.145 47.5689V51.5865H129.959V56.4015H134.406V51.5865H137.381V47.5689H134.406V32.3572ZM129.959 47.5689H124.454L129.959 39.3803V47.5689ZM96.1312 77.4709C95.4412 77.0876 94.5671 77.3329 94.1684 78.023C93.9384 78.4217 93.7084 78.8357 93.463 79.2344C93.049 79.9091 93.279 80.7985 93.9537 81.2125C94.1837 81.3505 94.4444 81.4119 94.6898 81.4119C95.1805 81.4119 95.6558 81.1665 95.9165 80.7218C96.1619 80.3078 96.4226 79.8784 96.6679 79.4491C97.0666 78.7284 96.8213 77.8543 96.1312 77.4709ZM92.3436 83.5587C91.7149 83.068 90.8102 83.1907 90.3348 83.8194C90.0588 84.1874 89.7674 84.5554 89.4607 84.9081C88.9547 85.5215 89.0467 86.4262 89.6601 86.9323C89.9208 87.1469 90.2428 87.2543 90.5648 87.2543C90.9789 87.2543 91.3929 87.0703 91.6842 86.7329C91.9909 86.3495 92.2976 85.9662 92.6043 85.5675C93.095 84.9541 92.9723 84.0494 92.3436 83.5587ZM85.6885 89.0331L84.6764 89.9991C84.0937 90.5358 84.0631 91.4406 84.5998 92.0233C84.8758 92.33 85.2745 92.4833 85.6578 92.4833C86.0105 92.4833 86.3479 92.3606 86.6239 92.0999C86.9919 91.7626 87.3446 91.4252 87.6973 91.0879C88.2647 90.5358 88.28 89.6311 87.728 89.0637C87.1759 88.4963 86.2559 88.481 85.6885 89.0331ZM99.0141 70.8925C98.278 70.6011 97.4346 70.9692 97.1586 71.7052C96.9899 72.1346 96.8213 72.5793 96.6372 72.9933C96.3306 73.7293 96.6679 74.5727 97.404 74.8794C97.588 74.9561 97.772 74.9868 97.956 74.9868C98.5234 74.9868 99.0447 74.6494 99.2747 74.1127C99.4588 73.6527 99.6581 73.1926 99.8268 72.7479C100.118 72.0119 99.7501 71.1685 99.0141 70.8925ZM80.3675 93.5414C79.9994 93.8174 79.6161 94.0934 79.2327 94.3541C78.5733 94.7988 78.42 95.7035 78.8647 96.3476C79.1407 96.7462 79.5854 96.9763 80.0454 96.9763C80.3215 96.9763 80.6128 96.8996 80.8582 96.7309C81.2569 96.4549 81.6709 96.1635 82.0696 95.8722C82.7136 95.3968 82.8516 94.5074 82.3763 93.8634C81.9009 93.204 81.0115 93.066 80.3675 93.5414Z" fill="#005BFF"/>
<path d="M141.107 16.1182H89.7675C89.8135 15.2748 89.5068 14.4314 88.8321 13.818C79.0487 4.97008 66.3825 0.09375 53.1796 0.09375C46.0031 0.09375 39.0413 1.50451 32.4782 4.28004C26.1451 6.96355 20.4561 10.7972 15.5797 15.6735C10.7034 20.5498 6.8698 26.2389 4.18629 32.572C1.41076 39.1351 0 46.0969 0 53.2734C0 60.4499 1.41076 67.4117 4.18629 73.9748C6.8698 80.3079 10.7034 85.997 15.5797 90.8733C20.4561 95.7496 26.1451 99.5832 32.4782 102.267C39.0413 105.042 46.0031 106.453 53.1796 106.453C56.6912 106.453 60.2028 106.116 63.607 105.426C64.0057 105.349 64.3737 105.18 64.6958 104.966C64.8184 104.966 64.9564 104.95 65.0791 104.95C69.3114 104.736 72.9457 102.987 75.6598 99.8746C75.9052 99.5986 76.1505 99.3072 76.3806 99.0005C76.4419 98.9239 76.5032 98.8472 76.5646 98.7552C78.2974 96.3937 78.9874 94.1549 79.1407 93.6182C79.5548 92.2994 81.0115 85.4143 70.1548 77.8544C61.1228 71.552 56.1698 75.6003 53.7777 77.5477C53.6703 77.6397 53.5323 77.7471 53.4097 77.8391C52.3669 76.9497 50.3888 74.8029 48.15 71.506C45.3744 67.427 44.3624 64.7588 44.2244 63.8388C45.8345 63.4401 47.5059 62.3207 48.748 60.7566C50.5881 58.4411 52.4129 54.1781 50.6495 46.9556C49.4687 42.156 47.6746 38.4757 45.2824 36.0375C42.8903 33.5994 40.7281 33.2007 40.1147 33.1393C40.0381 33.1393 32.8309 32.5413 27.3872 37.5403C23.5996 41.0059 21.7442 46.1122 21.8362 52.706C21.9588 60.4806 23.9676 68.2704 27.8012 75.8609C30.9908 82.1634 34.6864 86.7637 36.0665 88.4811C38.336 91.3027 43.703 96.7464 50.2661 100.595C25.4704 99.0772 5.75039 78.4371 5.75039 53.2581C5.75039 27.1129 27.0192 5.82881 53.1796 5.82881C63.9444 5.82881 74.2951 9.46306 82.6677 16.1028H60.9848C57.8106 16.1028 55.2344 18.679 55.2344 21.8532V64.6975C55.2344 67.8717 57.8106 70.4479 60.9848 70.4479H141.122C144.297 70.4479 146.873 67.8717 146.873 64.6975V21.8686C146.857 18.6944 144.281 16.1182 141.107 16.1182ZM40.5441 84.8622C32.1102 74.3735 27.7552 63.5168 27.5866 52.5987C27.5099 47.7837 28.7213 44.1801 31.1595 41.8646C34.1497 39.0431 38.1979 38.8437 39.2867 38.8437H39.4707C39.9154 38.9971 43.1049 40.3158 45.0677 48.3204C46.1872 52.8594 45.4051 55.4049 44.577 56.7236C43.9177 57.7817 43.1356 58.1651 42.8903 58.2417C41.6328 58.2571 40.4981 58.7324 39.7007 59.6218C38.4893 60.9559 38.428 62.6887 38.474 63.4708C38.382 68.3624 44.8224 77.2564 48.2113 80.7833C50.3428 83.0068 51.9069 83.9268 53.4557 83.8808C55.1118 83.8348 56.3232 82.8381 57.3966 81.964C58.3933 81.1513 59.3287 80.3846 60.5861 80.2006C62.1963 79.9706 64.3124 80.7526 66.8579 82.5314C73.9117 87.4537 73.7277 91.2107 73.6357 91.824L73.5897 92.0387C73.4824 92.4374 71.5962 98.8165 64.7724 99.1692C55.5565 99.6752 44.4697 89.7539 40.5441 84.8622ZM143.99 64.7128C143.99 66.2923 142.702 67.5804 141.122 67.5804H60.9848C59.4054 67.5804 58.1173 66.2923 58.1173 64.7128V21.8686C58.1173 20.2891 59.4054 19.001 60.9848 19.001H141.122C142.702 19.001 143.99 20.2891 143.99 21.8686V64.7128Z" fill="#005BFF"/>
<path d="M154.479 49.593C153.681 49.593 153.037 50.2371 153.037 51.0344V70.4018C153.037 74.0054 150.108 76.9342 146.505 76.9342H107.847C107.049 76.9342 106.405 77.5783 106.405 78.3757C106.405 79.173 107.049 79.8171 107.847 79.8171H146.52C151.703 79.8171 155.92 75.6001 155.92 70.4171V51.0344C155.92 50.2371 155.276 49.593 154.479 49.593Z" fill="#06F3FF"/>
</svg>
