<svg width="70" height="48" viewBox="0 0 70 48" fill="none" xmlns="http://www.w3.org/2000/svg">
<path d="M63.1843 31.6791H27.5441C26.0295 31.6791 24.7972 30.4468 24.7972 28.9322V10.0347C24.7972 8.52014 26.0295 7.28784 27.5441 7.28784H63.1843C64.6989 7.28784 65.9312 8.52014 65.9312 10.0347V28.9391C65.9312 30.4537 64.6989 31.6791 63.1843 31.6791Z" fill="white"/>
<path d="M30.0158 37.1108C28.873 36.3122 27.9229 35.9611 27.2001 36.0644C26.6424 36.147 26.2225 36.4912 25.7681 36.8561C25.2862 37.2485 24.7424 37.696 23.9988 37.7166C23.3035 37.7373 22.5944 37.3173 21.6444 36.326C20.123 34.7357 17.2315 30.7497 17.2728 28.5536C17.2522 28.2025 17.2797 27.4245 17.8236 26.8256C18.1885 26.4263 18.691 26.206 19.2555 26.206C19.3657 26.1716 19.7168 25.9926 20.0128 25.5245C20.3915 24.9255 20.7357 23.7896 20.2331 21.7518C19.3519 18.1582 17.92 17.5662 17.7203 17.4973H17.6377C17.1489 17.4973 15.3315 17.5868 13.989 18.8535C12.8944 19.8931 12.3505 21.5109 12.385 23.6726C12.4607 28.5811 14.4158 33.4552 18.2022 38.1572C19.9646 40.3464 24.942 44.8006 29.0795 44.5872C32.1361 44.4289 32.9829 41.565 33.038 41.386L33.0586 41.2896C33.0999 41.0073 33.1757 39.3207 30.0158 37.1108Z" fill="#E6E6E6"/>
<path d="M29.224 16.685H33.9122C32.9415 17.9035 32.1705 19.2873 31.5922 20.8294C31.0139 22.3783 30.7041 23.8929 30.6697 25.3799H32.6593C32.6524 24.4299 32.8107 23.3559 33.1274 22.1443C33.4441 20.9395 33.8985 19.7967 34.5043 18.7296C35.1032 17.6557 35.6953 16.8364 36.2805 16.265V14.7711H29.224V16.685ZM44.9203 17.5868H42.497L41.0444 19.7347L39.6675 17.5868H37.1479L39.8465 21.3663L37.0308 25.3799H39.4472L41.0444 22.9704L42.6347 25.3799H45.1613L42.2836 21.2837L44.9203 17.5868ZM50.4691 21.7037C51.1162 21.1047 51.5706 20.6504 51.8184 20.3337C52.1971 19.8518 52.4724 19.3974 52.6445 18.9568C52.8166 18.5162 52.9061 18.055 52.9061 17.5731C52.9061 16.7194 52.6032 16.0103 51.9974 15.4389C51.3916 14.8675 50.5586 14.5784 49.4984 14.5784C48.5277 14.5784 47.7222 14.8262 47.0751 15.3219C46.428 15.8176 46.0424 16.6299 45.9254 17.7658L47.9769 17.9724C48.0183 17.3734 48.1628 16.9397 48.4175 16.6781C48.6723 16.4165 49.0165 16.2857 49.4433 16.2857C49.877 16.2857 50.2212 16.4096 50.4691 16.6574C50.7169 16.9053 50.8408 17.2564 50.8408 17.7176C50.8408 18.1307 50.6963 18.5575 50.414 18.9775C50.2006 19.2873 49.6361 19.8724 48.7067 20.7399C47.5501 21.8138 46.7791 22.6744 46.3867 23.3215C45.9943 23.9686 45.7602 24.657 45.6845 25.3799H52.913V23.4661H48.8168C48.927 23.2802 49.0647 23.0874 49.2368 22.8947C49.4089 22.7019 49.8219 22.3026 50.4691 21.7037ZM60.3412 14.5784H58.6064L53.9388 21.4076V23.2113H58.3448V25.373H60.3412V23.2113H61.6768V21.4076H60.3412V14.5784ZM58.3448 21.4076H55.8733L58.3448 17.7314V21.4076ZM43.1579 34.8321C42.8481 34.66 42.4557 34.7701 42.2767 35.0799C42.1734 35.2589 42.0702 35.4448 41.96 35.6238C41.7742 35.9267 41.8774 36.326 42.1803 36.5119C42.2836 36.5738 42.4006 36.6014 42.5108 36.6014C42.7311 36.6014 42.9445 36.4912 43.0615 36.2916C43.1717 36.1057 43.2887 35.913 43.3989 35.7202C43.5779 35.3966 43.4677 35.0042 43.1579 34.8321ZM41.4575 37.5652C41.1752 37.3449 40.769 37.4 40.5556 37.6822C40.4317 37.8475 40.3009 38.0127 40.1632 38.171C39.936 38.4464 39.9773 38.8526 40.2527 39.0797C40.3698 39.1761 40.5143 39.2243 40.6589 39.2243C40.8448 39.2243 41.0306 39.1417 41.1614 38.9903C41.2991 38.8181 41.4368 38.646 41.5745 38.467C41.7948 38.1917 41.7397 37.7855 41.4575 37.5652ZM38.4697 40.0229L38.0153 40.4566C37.7537 40.6976 37.7399 41.1037 37.9809 41.3654C38.1048 41.503 38.2838 41.5719 38.4559 41.5719C38.6142 41.5719 38.7657 41.5168 38.8896 41.3998C39.0548 41.2483 39.2132 41.0969 39.3715 40.9454C39.6262 40.6976 39.6331 40.2914 39.3853 40.0367C39.1375 39.7819 38.7244 39.7751 38.4697 40.0229ZM44.4522 31.8787C44.1217 31.7479 43.7431 31.9131 43.6192 32.2436C43.5434 32.4364 43.4677 32.636 43.3851 32.8219C43.2474 33.1523 43.3989 33.531 43.7293 33.6687C43.8119 33.7031 43.8945 33.7168 43.9771 33.7168C44.2319 33.7168 44.4659 33.5654 44.5692 33.3244C44.6518 33.1179 44.7413 32.9114 44.817 32.7117C44.9478 32.3813 44.7826 32.0026 44.4522 31.8787ZM36.0808 42.0469C35.9156 42.1708 35.7435 42.2947 35.5714 42.4118C35.2753 42.6114 35.2065 43.0176 35.4061 43.3067C35.5301 43.4857 35.7297 43.589 35.9362 43.589C36.0602 43.589 36.191 43.5546 36.3011 43.4788C36.4801 43.3549 36.666 43.2241 36.845 43.0933C37.1341 42.8799 37.1961 42.4806 36.9827 42.1915C36.7692 41.8954 36.3699 41.8335 36.0808 42.0469Z" fill="#005BFF"/>
<path d="M63.3497 7.28789H40.3009C40.3216 6.90925 40.1839 6.53061 39.881 6.25524C35.4888 2.28297 29.8023 0.09375 23.8749 0.09375C20.653 0.09375 17.5275 0.72711 14.581 1.97318C11.7378 3.17794 9.18371 4.89902 6.99449 7.08824C4.80527 9.27747 3.08419 11.8316 1.87943 14.6748C0.633359 17.6213 0 20.7468 0 23.9687C0 27.1905 0.633359 30.316 1.87943 33.2625C3.08419 36.1058 4.80527 38.6598 6.99449 40.8491C9.18371 43.0383 11.7378 44.7594 14.581 45.9641C17.5275 47.2102 20.653 47.8436 23.8749 47.8436C25.4514 47.8436 27.0279 47.6921 28.5563 47.3823C28.7352 47.3479 28.9005 47.2722 29.045 47.1758C29.1001 47.1758 29.1621 47.1689 29.2172 47.1689C31.1172 47.0725 32.7488 46.2877 33.9673 44.8902C34.0775 44.7663 34.1876 44.6355 34.2909 44.4978C34.3184 44.4633 34.346 44.4289 34.3735 44.3876C35.1515 43.3274 35.4613 42.3223 35.5301 42.0814C35.716 41.4893 36.37 38.3982 31.4959 35.0043C27.441 32.1748 25.2173 33.9923 24.1434 34.8666C24.0952 34.9079 24.0332 34.9561 23.9782 34.9974C23.51 34.5981 22.622 33.6343 21.6168 32.1541C20.3708 30.3229 19.9164 29.125 19.8544 28.712C20.5773 28.533 21.3277 28.0304 21.8853 27.3282C22.7114 26.2887 23.5307 24.3748 22.739 21.1323C22.2089 18.9775 21.4034 17.3253 20.3295 16.2307C19.2555 15.136 18.2848 14.957 18.0094 14.9295C17.975 14.9295 14.7394 14.661 12.2954 16.9053C10.595 18.4612 9.762 20.7537 9.80331 23.7139C9.85838 27.2043 10.7602 30.7015 12.4813 34.1093C13.9133 36.9388 15.5724 39.0041 16.192 39.7751C17.2109 41.0418 19.6204 43.4858 22.5669 45.2137C11.4349 44.5322 2.58163 35.2659 2.58163 23.9618C2.58163 12.224 12.1302 2.6685 23.8749 2.6685C28.7077 2.6685 33.3546 4.30008 37.1135 7.281H27.379C25.954 7.281 24.7974 8.43757 24.7974 9.86263V29.0975C24.7974 30.5226 25.954 31.6791 27.379 31.6791H63.3566C64.7817 31.6791 65.9382 30.5226 65.9382 29.0975V9.86952C65.9314 8.44446 64.7748 7.28789 63.3497 7.28789ZM18.2022 38.1504C14.4158 33.4415 12.4607 28.5674 12.3849 23.6657C12.3505 21.5041 12.8944 19.8862 13.989 18.8467C15.3314 17.58 17.1489 17.4905 17.6377 17.4905H17.7203C17.9199 17.5593 19.3519 18.1514 20.2331 21.745C20.7356 23.7828 20.3845 24.9256 20.0128 25.5176C19.7168 25.9927 19.3657 26.1648 19.2555 26.1992C18.691 26.2061 18.1815 26.4195 17.8236 26.8188C17.2797 27.4177 17.2522 28.1956 17.2728 28.5467C17.2315 30.7429 20.1229 34.7358 21.6444 36.3192C22.6013 37.3174 23.3035 37.7305 23.9988 37.7098C24.7423 37.6892 25.2862 37.2417 25.7681 36.8493C26.2156 36.4844 26.6355 36.1402 27.2 36.0576C27.9229 35.9543 28.8729 36.3054 30.0157 37.104C33.1825 39.3139 33.0999 41.0005 33.0586 41.2759L33.038 41.3723C32.9898 41.5513 32.143 44.4152 29.0795 44.5735C24.942 44.8007 19.9646 40.3465 18.2022 38.1504ZM64.644 29.1044C64.644 29.8135 64.0657 30.3917 63.3566 30.3917H27.379C26.6699 30.3917 26.0917 29.8135 26.0917 29.1044V9.86952C26.0917 9.16043 26.6699 8.58215 27.379 8.58215H63.3566C64.0657 8.58215 64.644 9.16043 64.644 9.86952V29.1044Z" fill="#005BFF"/>
<path d="M69.3529 22.3164C68.9949 22.3164 68.7058 22.6055 68.7058 22.9635V31.6585C68.7058 33.2763 67.3909 34.5912 65.7731 34.5912H48.4176C48.0597 34.5912 47.7705 34.8803 47.7705 35.2383C47.7705 35.5963 48.0597 35.8854 48.4176 35.8854H65.78C68.1069 35.8854 70.0001 33.9923 70.0001 31.6653V22.9635C70.0001 22.6055 69.7109 22.3164 69.3529 22.3164Z" fill="#06F3FF"/>
</svg>
