<svg width="70" height="71" viewBox="0 0 70 71" fill="none" xmlns="http://www.w3.org/2000/svg">
<path d="M21.6939 56.6512L22.9872 57.3403C24.4599 58.1144 26.1025 58.813 27.8301 59.3322L29.2178 59.7665V66.252C29.2178 67.8096 30.2562 68.1589 31.1247 68.1589H38.9036C39.7721 68.1589 40.8105 67.8096 40.8105 66.252V59.7665L42.1982 59.3322C43.9258 58.813 45.5684 58.1239 47.0411 57.3403L48.3345 56.6512L49.3729 57.6896C51.1854 59.5022 52.4032 60.8049 52.9225 61.1448C53.3567 61.579 53.791 61.8339 54.2158 61.8339C54.9899 61.8339 55.6885 61.2297 55.6885 61.1448L61.2205 55.6127C61.8247 55.0086 62.3439 53.9701 61.2205 52.8467L56.6419 48.2682L57.3311 46.9748C58.1052 45.5022 58.8038 43.8595 59.323 42.132L59.7572 40.7442H66.2427C67.8004 40.7442 68.1497 39.7058 68.1497 38.8373V31.0585C68.1497 30.1899 67.8004 29.1515 66.2427 29.1515H59.7572L59.323 27.7638C58.7188 26.1212 58.1146 24.4786 57.2461 23.0059L56.557 21.7125L57.5954 20.6741L61.145 17.1245C61.5792 16.6903 61.8341 16.256 61.8341 15.8312C61.8341 15.227 61.3999 14.6229 61.145 14.3585L55.5941 8.83594C55.4241 8.66601 54.82 8.14679 54.1214 8.14679C53.6871 8.14679 53.2529 8.31672 52.828 8.83594L48.2495 13.4145L46.9562 12.7253C45.4835 11.9512 43.8409 11.2527 42.1982 10.7334L40.8105 10.3841V3.81368C40.8105 2.17107 39.4228 1.90674 38.8186 1.90674H31.1247C30.5206 1.90674 29.2178 2.16163 29.2178 3.81368V10.3841L27.8301 10.8184C26.1875 11.3376 24.5448 11.9418 23.0721 12.8103L21.7788 13.4995L17.1153 8.83594C16.681 8.40168 16.2468 8.23176 15.9069 8.23176C15.2178 8.23176 14.5192 8.75097 14.3493 8.9209L8.81726 14.368C8.46797 14.8022 7.6089 15.9256 8.81726 17.134L13.3958 21.722L12.7067 23.0153C11.9326 24.488 11.234 26.1306 10.7148 27.7732L10.2805 29.161H3.79501C2.23735 29.2459 1.88806 30.4543 1.88806 31.2378V38.9317C1.88806 39.5359 2.14295 40.8386 3.79501 40.8386H10.2805L10.7148 42.2264C11.234 43.9539 11.9231 45.5116 12.7067 47.0692L13.3958 48.3626L8.81726 52.9411C7.69386 54.0645 8.383 55.1879 8.81726 55.7071L14.2643 61.1542C14.4342 61.2392 15.1328 61.7584 15.737 61.7584C16.1713 61.7584 16.5111 61.5885 16.9454 61.1542L21.6939 56.6512Z" fill="white"/>
<path d="M33.617 53.0262H33.5415C33.211 52.9979 32.8806 52.9601 32.5502 52.9224C32.031 52.8563 31.6723 52.3749 31.7384 51.8556C31.8044 51.3364 32.2859 50.9777 32.8051 51.0438C33.0978 51.0815 33.3999 51.1193 33.6925 51.1382C34.2117 51.1759 34.5988 51.6385 34.561 52.1577C34.5138 52.6581 34.0984 53.0262 33.617 53.0262ZM37.3742 52.9224C36.9117 52.9224 36.5057 52.5825 36.4396 52.1105C36.3641 51.5913 36.7323 51.1193 37.2421 51.0438C37.5347 51.006 37.8274 50.9588 38.12 50.9022C38.6298 50.7983 39.1301 51.1382 39.2245 51.6479C39.3189 52.1577 38.9885 52.6581 38.4787 52.7525C38.1578 52.8185 37.8274 52.8752 37.497 52.913C37.4686 52.9224 37.4214 52.9224 37.3742 52.9224ZM29.0195 52.0067C28.9063 52.0067 28.8024 51.9878 28.6891 51.95C28.3776 51.8368 28.0661 51.7046 27.764 51.5724C27.2825 51.3647 27.0654 50.8078 27.2825 50.3263C27.4902 49.8448 28.0472 49.6277 28.5286 49.8448C28.8024 49.9676 29.0762 50.0809 29.3594 50.1847C29.8503 50.3641 30.0957 50.9116 29.9164 51.4025C29.7653 51.7707 29.4066 52.0067 29.0195 52.0067ZM41.9056 51.6479C41.5468 51.6479 41.1976 51.4403 41.0371 51.0815C40.8294 50.6001 41.0465 50.0431 41.5185 49.8354C41.7923 49.7127 42.0566 49.59 42.321 49.4578C42.7835 49.2218 43.3499 49.4106 43.586 49.8732C43.822 50.3357 43.6332 50.9022 43.1706 51.1382C42.8779 51.2892 42.5758 51.4308 42.2738 51.563C42.1605 51.6196 42.0377 51.6479 41.9056 51.6479ZM24.8847 49.7693C24.6864 49.7693 24.4976 49.7127 24.3277 49.59C24.0634 49.3917 23.799 49.184 23.5442 48.9763C23.1382 48.6459 23.0816 48.0512 23.412 47.6452C23.7424 47.2393 24.3371 47.1827 24.7431 47.5131C24.9696 47.7019 25.2056 47.8907 25.4511 48.0606C25.8759 48.3722 25.9609 48.9575 25.6493 49.3823C25.4605 49.6372 25.1679 49.7693 24.8847 49.7693ZM45.9083 49.1746C45.6345 49.1746 45.3702 49.0613 45.1814 48.8347C44.851 48.4288 44.9076 47.8341 45.3041 47.5036C45.5307 47.3148 45.7572 47.1166 45.9744 46.9183C46.3614 46.5691 46.9562 46.5879 47.3054 46.975C47.6547 47.362 47.6359 47.9568 47.2488 48.3061C47.0034 48.5326 46.7579 48.7498 46.503 48.9575C46.3331 49.1085 46.116 49.1746 45.9083 49.1746ZM21.505 46.4935C21.2218 46.4935 20.9481 46.3708 20.7593 46.1348C20.5516 45.8705 20.3533 45.6061 20.1645 45.3324C19.8624 44.9076 19.9757 44.3128 20.4005 44.0202C20.8253 43.7181 21.4201 43.8314 21.7127 44.2562C21.8827 44.5016 22.062 44.7376 22.2414 44.9736C22.5624 45.389 22.4868 45.9743 22.0809 46.2953C21.911 46.4274 21.7127 46.4935 21.505 46.4935ZM49.0897 45.7194C48.9009 45.7194 48.7121 45.6628 48.5516 45.5495C48.1268 45.2568 48.0135 44.6621 48.3156 44.2373C48.4855 43.9918 48.646 43.7464 48.8065 43.4915C49.0802 43.0478 49.6655 42.9062 50.1092 43.18C50.5529 43.4537 50.6945 44.039 50.4208 44.4827C50.2508 44.7659 50.062 45.0397 49.8732 45.3135C49.6844 45.5778 49.3918 45.7194 49.0897 45.7194ZM19.145 42.4247C18.7768 42.4247 18.4181 42.2076 18.267 41.8394C18.1443 41.5374 18.0216 41.2164 17.9177 40.9049C17.7478 40.414 18.0121 39.8759 18.503 39.7059C18.9939 39.536 19.532 39.8003 19.7019 40.2912C19.7963 40.5744 19.9002 40.8482 20.0135 41.122C20.2117 41.6034 19.9757 42.1604 19.4943 42.3492C19.3904 42.3964 19.2677 42.4247 19.145 42.4247ZM51.2232 41.5185C51.1193 41.5185 51.0155 41.4996 50.9211 41.4713C50.4302 41.3014 50.1659 40.7632 50.3358 40.2724C50.4302 39.9891 50.5246 39.7059 50.6001 39.4227C50.7417 38.9224 51.2609 38.6297 51.7613 38.7713C52.2616 38.9129 52.5543 39.4322 52.4127 39.9325C52.3183 40.2535 52.2239 40.5744 52.12 40.886C51.9784 41.273 51.6102 41.5185 51.2232 41.5185ZM17.9932 37.8651C17.5212 37.8651 17.1059 37.5063 17.0586 37.0249C17.0209 36.6945 16.9926 36.3641 16.9737 36.0336C16.9454 35.5144 17.3419 35.0707 17.8611 35.0424C18.3803 35.0141 18.824 35.4106 18.8523 35.9298C18.8712 36.2225 18.8901 36.5245 18.9278 36.8172C18.9845 37.3364 18.6163 37.799 18.0971 37.8556C18.0593 37.8651 18.0216 37.8651 17.9932 37.8651ZM52.12 36.9022H52.0634C51.5441 36.8738 51.1477 36.4301 51.176 35.9109C51.1949 35.6183 51.2043 35.3162 51.2043 35.0235C51.2043 34.5043 51.6291 34.0795 52.1483 34.0795C52.6676 34.0795 53.0924 34.5043 53.0924 35.0235C53.0924 35.3539 53.0829 35.6844 53.064 36.0148C53.0357 36.5151 52.6203 36.9022 52.12 36.9022ZM18.116 33.1638C18.0688 33.1638 18.0121 33.1638 17.9649 33.1543C17.4457 33.0694 17.1059 32.5879 17.1908 32.0687C17.2475 31.7383 17.3041 31.4173 17.3796 31.0869C17.4929 30.5771 17.9932 30.2562 18.503 30.3695C19.0128 30.4827 19.3338 30.9831 19.2205 31.4929C19.1544 31.7855 19.0978 32.0782 19.0506 32.3708C18.9656 32.8334 18.5691 33.1638 18.116 33.1638ZM51.9029 33.0883C51.4497 33.0883 51.0533 32.7579 50.9777 32.3047C50.9305 32.0121 50.8739 31.7194 50.8078 31.4268C50.6945 30.917 51.0155 30.4167 51.5158 30.2939C52.0256 30.1806 52.5259 30.5016 52.6487 31.002C52.7242 31.3229 52.7903 31.6533 52.8375 31.9837C52.9224 32.4935 52.5731 32.9844 52.0634 33.0694C52.0067 33.0883 51.9595 33.0883 51.9029 33.0883ZM19.5037 28.6702C19.3715 28.6702 19.2299 28.6419 19.0978 28.5758C18.6257 28.3492 18.4275 27.7922 18.6446 27.3202C18.7862 27.0181 18.9373 26.7255 19.0978 26.4328C19.3432 25.9703 19.9191 25.8003 20.3816 26.0552C20.8442 26.3007 21.0141 26.8765 20.7593 27.3391C20.6177 27.6034 20.4855 27.8678 20.3533 28.1321C20.2023 28.4719 19.8624 28.6702 19.5037 28.6702ZM50.4868 28.6041C50.1375 28.6041 49.7977 28.4059 49.6372 28.066C49.5145 27.8017 49.3729 27.5279 49.2313 27.273C48.9858 26.8199 49.1463 26.244 49.6089 25.9891C50.062 25.7437 50.6379 25.9042 50.8928 26.3668C51.0533 26.6594 51.2043 26.9521 51.3459 27.2541C51.5725 27.7262 51.3742 28.2926 50.9022 28.5097C50.7606 28.5758 50.6284 28.6041 50.4868 28.6041ZM22.0809 24.7241C21.8638 24.7241 21.6372 24.6486 21.4578 24.4881C21.0613 24.1483 21.0236 23.5535 21.3634 23.157C21.5806 22.9116 21.8071 22.6567 22.0337 22.4207C22.3924 22.0431 22.9966 22.0336 23.3648 22.4018C23.7424 22.7606 23.7518 23.3647 23.3837 23.7329C23.176 23.9406 22.9777 24.1672 22.7795 24.3937C22.6096 24.6203 22.3452 24.7241 22.0809 24.7241ZM47.9096 24.6769C47.6453 24.6769 47.3904 24.5637 47.2016 24.356C47.0034 24.1294 46.8051 23.9123 46.5974 23.7046C46.2293 23.327 46.2387 22.7322 46.6163 22.3735C46.9845 22.0053 47.5887 22.0148 47.9474 22.3924C48.174 22.6284 48.41 22.8738 48.6271 23.1193C48.9669 23.5158 48.9292 24.1105 48.5421 24.4504C48.3439 24.6014 48.1268 24.6769 47.9096 24.6769ZM25.621 21.6277C25.3095 21.6277 25.0168 21.4767 24.828 21.2029C24.5448 20.7686 24.6676 20.1833 25.1018 19.9001C25.3756 19.7208 25.6588 19.5414 25.9514 19.3809C26.4046 19.1166 26.9804 19.2771 27.2448 19.7208C27.5091 20.1739 27.358 20.7498 26.9049 21.0141C26.65 21.1651 26.3951 21.3162 26.1497 21.4861C25.9798 21.5805 25.8004 21.6277 25.621 21.6277ZM44.3506 21.5994C44.1713 21.5994 43.9919 21.5522 43.8408 21.4483C43.5954 21.2879 43.3405 21.1274 43.0762 20.9858C42.623 20.7214 42.472 20.1456 42.7269 19.6924C42.9818 19.2393 43.5671 19.0883 44.0202 19.3432C44.3034 19.5036 44.5961 19.683 44.8698 19.8624C45.3041 20.1456 45.4268 20.7309 45.1436 21.1651C44.9642 21.4483 44.6622 21.5994 44.3506 21.5994ZM29.8692 19.6169C29.4632 19.6169 29.0951 19.362 28.9723 18.9561C28.8119 18.4558 29.0951 17.9271 29.586 17.7761C29.8975 17.6722 30.2279 17.5873 30.5394 17.5023C31.0492 17.3701 31.559 17.6817 31.6912 18.182C31.8233 18.6918 31.5118 19.2016 31.0114 19.3337C30.7282 19.4092 30.4356 19.4848 30.1524 19.5792C30.058 19.598 29.9636 19.6169 29.8692 19.6169ZM40.093 19.598C39.9986 19.598 39.9042 19.5886 39.8098 19.5508C39.5266 19.4659 39.2434 19.3809 38.9508 19.3148C38.441 19.1921 38.1389 18.6729 38.2616 18.1726C38.3843 17.6628 38.9036 17.3607 39.4039 17.4834C39.7249 17.5684 40.0458 17.6533 40.3668 17.7477C40.8671 17.8988 41.1409 18.4274 40.9899 18.9278C40.8671 19.3337 40.499 19.598 40.093 19.598ZM34.5044 18.8334C33.9946 18.8334 33.5792 18.4274 33.5603 17.9177C33.5415 17.3984 33.9568 16.9642 34.476 16.9453C34.8065 16.9359 35.1463 16.9359 35.4673 16.9453C35.9865 16.9548 36.4019 17.389 36.383 17.9177C36.3736 18.4274 35.9487 18.8334 35.439 18.8334H35.4106C35.118 18.8239 34.8159 18.8239 34.5138 18.8334H34.5044Z" fill="#005BFF"/>
<path d="M38.9036 70.0189H31.1247C28.8591 70.0189 27.3297 68.499 27.3297 66.2239V61.1261L27.2825 61.1072C25.5078 60.5691 23.7707 59.8611 22.1092 58.9831L22.0054 58.9265L18.2576 62.4761C17.7572 62.967 16.9548 63.6183 15.7276 63.6183C14.6986 63.6183 13.8301 63.0802 13.4147 62.8159C13.3958 62.8065 13.3864 62.797 13.3675 62.7876L13.1409 62.6743L7.42009 56.9535L7.36345 56.8874C5.92852 55.1692 5.97572 53.0829 7.47674 51.5725L11.0735 47.9757L11.0169 47.8719C10.356 46.5597 9.52529 44.7943 8.91167 42.7363L8.89278 42.6891H3.79501C1.18948 42.6891 0 40.7256 0 38.8941V31.2097C0 29.3405 1.14228 27.3864 3.68173 27.2448H8.88334L8.90223 27.1881C9.44976 25.4511 10.1861 23.7047 11.0263 22.1092L11.0641 22.0432L7.4673 18.4464C6.90088 17.88 5.21106 15.8125 7.32569 13.1598L7.39177 13.0748L13.0088 7.55226C13.1409 7.42009 14.321 6.31558 15.8881 6.31558C16.7849 6.31558 17.6912 6.73095 18.437 7.47674L22.1187 11.1585L22.147 11.1396C23.884 10.12 25.791 9.4592 27.2542 8.99663L27.3203 8.97775V3.79501C27.3203 1.18948 29.2839 0 31.1153 0H38.8092C39.2812 0 40.1875 0.084964 41.0465 0.632503C42.1038 1.31221 42.6797 2.42616 42.6797 3.78557V8.88335L42.7458 8.90223C44.4734 9.44976 46.2293 10.1767 47.8152 11.0263L47.8813 11.0641L51.4214 7.52394C52.3466 6.45718 53.3945 6.22117 54.1025 6.22117C55.5469 6.22117 56.6136 7.17465 56.9063 7.4673L62.4383 12.9993C63.0425 13.6035 63.6844 14.6514 63.6844 15.8031C63.6844 16.7283 63.2691 17.6062 62.4383 18.437L58.8415 22.0337L58.8604 22.062C59.8045 23.6669 60.437 25.4039 61.06 27.0843L61.1072 27.2353H66.205C68.4707 27.2353 70 28.7552 70 31.0303V38.8092C70 41.0748 68.4801 42.6042 66.205 42.6042H61.1072L61.0883 42.6514C60.5502 44.4262 59.8422 46.1726 58.9643 47.8247L58.9265 47.8908L62.5233 51.4875C63.439 52.4032 63.8638 53.5266 63.7033 54.6595C63.59 55.4808 63.1841 56.2643 62.5233 56.9252L57.114 62.3628C56.4437 63.2124 55.1787 63.7033 54.2063 63.7033C53.3284 63.7033 52.4882 63.3257 51.6952 62.5799C51.2043 62.2117 50.5907 61.5887 49.3823 60.3709C48.9764 59.9649 48.5233 59.5024 48.0324 59.002L47.9852 58.9548L47.9191 58.9926C46.2576 59.8705 44.5206 60.588 42.7458 61.1167L42.6986 61.1355V66.2333C42.6986 68.499 41.1693 70.0189 38.9036 70.0189ZM31.1059 66.2427H38.9036V58.3506L41.6318 57.501C43.18 57.0384 44.6905 56.4154 46.1349 55.6507L48.6649 54.3007L50.6945 56.3304C51.2043 56.8402 51.6575 57.3028 52.0634 57.7181C52.8658 58.5394 53.706 59.3796 53.9515 59.559L54.1119 59.6628L54.2347 59.795L54.2819 59.8422L59.8611 54.263C59.88 54.2441 59.8894 54.2252 59.9083 54.2158C59.8989 54.1969 59.88 54.1875 59.8611 54.1686L54.2913 48.5988L55.6413 46.0688C56.4059 44.6339 57.0196 43.114 57.4916 41.5752L57.501 41.5563L58.3506 38.8469H66.2428V31.0587V31.0492H58.3506L57.5199 28.3871C56.9346 26.7916 56.3776 25.2906 55.6035 23.9784L55.5657 23.9123L54.2158 21.3823L59.7856 15.8125L59.8328 15.7653C59.8139 15.7465 59.8044 15.7276 59.7856 15.7087L54.2535 10.1767C54.2347 10.1672 54.2252 10.1483 54.1969 10.1295L48.5893 15.7181L46.0593 14.3682C44.6905 13.6413 43.1706 13.0088 41.679 12.5273L38.9225 11.8382V3.79501V3.78557C38.8847 3.77613 38.8564 3.77613 38.8186 3.77613H31.1247H31.1153V11.7438L28.4059 12.5934C27.1221 12.9993 25.4606 13.5752 24.0445 14.4059L23.9784 14.4437L21.4484 15.7937L15.8125 10.1578C15.7559 10.1861 15.7087 10.2239 15.6709 10.2522L10.2428 15.5954C10.1955 15.6521 10.1672 15.6993 10.1389 15.737L10.1672 15.7653L15.737 21.3351L14.3871 23.8651C13.6507 25.2529 13.0088 26.7822 12.5368 28.3021L11.6966 31.002H3.88941C3.87053 31.002 3.85165 31.0115 3.83277 31.0115C3.82333 31.0587 3.81389 31.1153 3.81389 31.1908V38.8941H11.6966L12.5462 41.6224C12.9616 43.0007 13.5374 44.3978 14.4059 46.1443L15.7465 48.6554L10.1767 54.2252L10.1483 54.2535C10.1672 54.2913 10.1955 54.3385 10.2428 54.3951L15.4538 59.6062C15.5105 59.6345 15.586 59.6912 15.6709 59.7289L21.4107 54.3007L23.9029 55.6318C25.3378 56.3965 26.8577 57.0101 28.3965 57.4821L28.4154 57.4916L31.1247 58.3412V66.2333C31.1059 66.2333 31.1059 66.2427 31.1059 66.2427ZM15.6804 10.2333L15.6615 10.2522C15.6709 10.2428 15.6804 10.2428 15.6804 10.2333Z" fill="#005BFF"/>
<path d="M48.6365 44.3412L47.5981 43.3783L47.9379 42.7364C50.4774 37.9407 49.5522 31.9178 45.6911 28.0944C42.5192 24.9508 37.9406 23.7802 33.7019 24.9319L41.1409 32.2954C42.8496 33.9852 42.8591 36.7512 41.1692 38.4599L38.5259 41.1315C37.7046 41.9623 36.619 42.4154 35.4484 42.4248H35.4295C34.2778 42.4248 33.1827 41.9811 32.3614 41.1598L24.9224 33.7964C23.8179 38.0445 25.0357 42.6136 28.2077 45.7573C32.0688 49.5806 38.1011 50.4397 42.8685 47.853L43.5104 47.5037L60.7013 65.7047C61.2299 66.2711 61.9474 66.5826 62.7215 66.5921C63.4956 66.6015 64.2225 66.2994 64.7606 65.7519L66.0634 64.4397C66.6109 63.8921 66.8941 63.1652 66.8847 62.3911C66.8658 61.617 66.5448 60.8995 65.9784 60.3803L48.9858 44.6527L48.6365 44.3412Z" fill="#E6E6E6"/>
<path d="M49.9299 42.9628C51.091 40.4516 51.5158 37.6006 51.1099 34.8535C51.5158 37.6101 51.091 40.4611 49.9299 42.9628ZM68.5934 61.1826C68.6312 61.3336 68.6689 61.4847 68.6972 61.6452C68.6689 61.4847 68.6406 61.3336 68.5934 61.1826Z" fill="#005BFF"/>
<path d="M68.6972 61.6453C68.6689 61.4942 68.6311 61.3337 68.5934 61.1827C68.5651 61.0788 68.5367 60.975 68.499 60.8712C68.2441 60.1631 67.8287 59.5212 67.2623 58.9925L50.2697 43.265L49.9393 42.9629C51.1005 40.4517 51.5253 37.6008 51.1193 34.8536C50.6662 31.7572 49.2502 28.9629 47.0222 26.7538C42.9535 22.7322 36.9022 21.5144 31.5967 23.6574L30.2657 24.1955L39.8098 33.6358C40.2818 34.0984 40.5367 34.7215 40.5462 35.3823C40.5462 36.0431 40.2913 36.6662 39.8287 37.1287L37.1854 39.8004C36.7228 40.2724 36.0998 40.5273 35.439 40.5367H35.4295C34.7781 40.5367 34.1551 40.2818 33.6925 39.8192L24.1389 30.3789L23.6197 31.7194C21.5334 37.0438 22.8172 43.0856 26.886 47.1072C29.1139 49.3162 31.9272 50.6945 35.0236 51.1193C37.7802 51.4875 40.6217 51.0438 43.1234 49.8543L59.3324 67.0168C60.2198 67.9514 61.4187 68.4801 62.7026 68.4895H62.7593C64.0243 68.4895 65.2137 67.9986 66.1106 67.0923L67.4133 65.7801C68.3196 64.8644 68.8011 63.6466 68.7727 62.3627C68.7633 62.1173 68.7444 61.8718 68.6972 61.6453ZM62.7215 66.6014C61.9474 66.592 61.2299 66.2805 60.7013 65.714L43.5104 47.5131L42.8685 47.8624C38.1011 50.449 32.0688 49.59 28.2077 45.7666C25.0357 42.623 23.8179 38.0633 24.9224 33.8057L32.3614 41.1692C33.1827 41.9811 34.2684 42.4342 35.4295 42.4342H35.4484C36.6096 42.4248 37.7046 41.9716 38.526 41.1409L41.1692 38.4693C42.8591 36.7606 42.8496 33.9946 41.1409 32.3047L33.7019 24.9413C37.9406 23.7896 42.5192 24.9602 45.6912 28.1038C49.5522 31.9271 50.4774 37.9406 47.9379 42.7457L47.5981 43.3877L48.6365 44.3506L48.9764 44.6716L65.969 60.3991C66.5354 60.9278 66.8564 61.6358 66.8752 62.4099C66.8941 63.184 66.6015 63.9109 66.0539 64.4585L64.7606 65.7612C64.2225 66.3088 63.4956 66.6014 62.7215 66.6014Z" fill="#005BFF"/>
<path d="M65.9123 59.9837C65.6858 59.9837 65.4497 59.8987 65.2704 59.7288L49.826 45.4362C49.439 45.0774 49.4201 44.4827 49.7788 44.1051C50.1375 43.718 50.7323 43.6992 51.1099 44.0579L66.5543 58.3505C66.9413 58.7093 66.9602 59.304 66.6015 59.6816C66.4127 59.8799 66.1578 59.9837 65.9123 59.9837Z" fill="#06F3FF"/>
</svg>
