<svg width="121" height="121" viewBox="0 0 121 121" fill="none" xmlns="http://www.w3.org/2000/svg">
<path d="M37.9967 97.2816L40.2176 98.465C42.7465 99.7943 45.5672 100.994 48.5338 101.886L50.9168 102.631V113.768C50.9168 116.443 52.7 117.043 54.1914 117.043H67.5492C69.0406 117.043 70.8238 116.443 70.8238 113.768V102.631L73.2068 101.886C76.1734 100.994 78.9941 99.8105 81.523 98.465L83.7439 97.2816L85.5272 99.0648C88.6397 102.177 90.7309 104.414 91.6225 104.998C92.3682 105.744 93.1139 106.181 93.8434 106.181C95.1727 106.181 96.3723 105.144 96.3723 104.998L105.872 95.4984C106.909 94.4609 107.801 92.6777 105.872 90.7486L98.0096 82.8863L99.193 80.6654C100.522 78.1365 101.722 75.3158 102.613 72.3492L103.359 69.9662H114.496C117.171 69.9662 117.771 68.183 117.771 66.6916V53.3338C117.771 51.8424 117.171 50.0592 114.496 50.0592H103.359L102.613 47.6762C101.576 44.8555 100.538 42.0348 99.0471 39.5059L97.8637 37.285L99.6469 35.5018L105.742 29.4064C106.488 28.6607 106.926 27.915 106.926 27.1855C106.926 26.148 106.18 25.1105 105.742 24.6566L96.2102 15.1732C95.9184 14.8814 94.8809 13.9898 93.6813 13.9898C92.9355 13.9898 92.1899 14.2816 91.4604 15.1732L83.5981 23.0355L81.3772 21.8521C78.8483 20.5229 76.0275 19.3232 73.2068 18.4316L70.8238 17.8318V6.54902C70.8238 3.72832 68.4408 3.27441 67.4033 3.27441H54.1914C53.1539 3.27441 50.9168 3.71211 50.9168 6.54902V17.8318L48.5338 18.5775C45.7131 19.4691 42.8924 20.5066 40.3635 21.998L38.1426 23.1814L30.1344 15.1732C29.3887 14.4275 28.643 14.1357 28.0594 14.1357C26.876 14.1357 25.6764 15.0273 25.3846 15.3191L15.885 24.6729C15.2852 25.4186 13.81 27.3477 15.885 29.4227L23.7473 37.3012L22.5639 39.5221C21.2346 42.051 20.035 44.8717 19.1434 47.6924L18.3977 50.0754H7.26075C4.58595 50.2213 3.98615 52.2963 3.98615 53.6418V66.8537C3.98615 67.8912 4.42384 70.1283 7.26075 70.1283H18.3977L19.1434 72.5113C20.035 75.4779 21.2184 78.1527 22.5639 80.8275L23.7473 83.0484L15.885 90.9107C13.9559 92.8398 15.1393 94.769 15.885 95.6606L25.2387 105.014C25.5305 105.16 26.7301 106.052 27.7676 106.052C28.5133 106.052 29.0969 105.76 29.8426 105.014L37.9967 97.2816Z" fill="white"/>
<path d="M58.4711 91.0568H58.3414C57.774 91.0082 57.2066 90.9433 56.6393 90.8785C55.7477 90.765 55.1316 89.9382 55.2451 89.0466C55.3586 88.155 56.1854 87.539 57.077 87.6525C57.5795 87.7173 58.0982 87.7822 58.6008 87.8146C59.4924 87.8794 60.157 88.6738 60.0922 89.5654C60.0111 90.4246 59.2979 91.0568 58.4711 91.0568ZM64.923 90.8785C64.1287 90.8785 63.4316 90.2949 63.3182 89.4843C63.1885 88.5927 63.8207 87.7822 64.6961 87.6525C65.1986 87.5876 65.7012 87.5066 66.2037 87.4093C67.0791 87.231 67.9383 87.8146 68.1004 88.69C68.2625 89.5654 67.6951 90.4246 66.8197 90.5867C66.2686 90.7001 65.7012 90.7974 65.1338 90.8623C65.0852 90.8785 65.0041 90.8785 64.923 90.8785ZM50.5764 89.306C50.3818 89.306 50.2035 89.2736 50.009 89.2087C49.474 89.0142 48.9391 88.7873 48.4203 88.5603C47.5936 88.2037 47.2207 87.2472 47.5936 86.4205C47.9502 85.5937 48.9066 85.2209 49.7334 85.5937C50.2035 85.8045 50.6736 85.999 51.16 86.1773C52.0029 86.4853 52.4244 87.4255 52.1164 88.2685C51.857 88.9007 51.241 89.306 50.5764 89.306ZM72.7043 88.69C72.0883 88.69 71.4885 88.3334 71.2129 87.7173C70.8563 86.8906 71.2291 85.9341 72.0396 85.5775C72.5098 85.3667 72.9637 85.156 73.4176 84.9291C74.2119 84.5238 75.1846 84.848 75.5898 85.6423C75.9951 86.4367 75.6709 87.4093 74.8766 87.8146C74.374 88.074 73.8553 88.3171 73.3365 88.5441C73.142 88.6414 72.9313 88.69 72.7043 88.69ZM43.476 85.464C43.1355 85.464 42.8113 85.3668 42.5195 85.156C42.0656 84.8156 41.6117 84.4589 41.174 84.1023C40.477 83.5349 40.3797 82.5136 40.9471 81.8166C41.5145 81.1195 42.5357 81.0222 43.2328 81.5896C43.6219 81.9138 44.0272 82.238 44.4486 82.5298C45.1781 83.0648 45.324 84.0699 44.7891 84.7994C44.4648 85.2371 43.9623 85.464 43.476 85.464ZM79.5777 84.4427C79.1076 84.4427 78.6537 84.2482 78.3295 83.8591C77.7621 83.1621 77.8594 82.1408 78.5402 81.5734C78.9293 81.2492 79.3184 80.9087 79.6912 80.5683C80.3559 79.9685 81.3772 80.0009 81.977 80.6656C82.5768 81.3302 82.5443 82.3515 81.8797 82.9513C81.4582 83.3404 81.0367 83.7132 80.599 84.0699C80.3072 84.3293 79.9344 84.4427 79.5777 84.4427ZM37.6725 79.8388C37.1861 79.8388 36.716 79.6281 36.3918 79.2228C36.0352 78.7689 35.6947 78.315 35.3705 77.8449C34.8518 77.1154 35.0463 76.0941 35.7758 75.5916C36.5053 75.0728 37.5266 75.2673 38.0291 75.9968C38.3209 76.4183 38.6289 76.8236 38.9369 77.2289C39.4881 77.9421 39.3584 78.9472 38.6613 79.4984C38.3695 79.7253 38.0291 79.8388 37.6725 79.8388ZM85.0408 78.5095C84.7166 78.5095 84.3924 78.4123 84.1168 78.2177C83.3873 77.7152 83.1928 76.6939 83.7115 75.9644C84.0033 75.5429 84.2789 75.1214 84.5545 74.6837C85.0246 73.9218 86.0297 73.6787 86.7916 74.1488C87.5535 74.6189 87.7967 75.624 87.3266 76.3859C87.0348 76.8722 86.7105 77.3423 86.3863 77.8125C86.0621 78.2664 85.5596 78.5095 85.0408 78.5095ZM33.6197 72.8519C32.9875 72.8519 32.3715 72.4791 32.1121 71.8468C31.9014 71.3281 31.6906 70.7769 31.5123 70.2419C31.2205 69.399 31.6744 68.475 32.5174 68.1832C33.3604 67.8914 34.2844 68.3453 34.5762 69.1882C34.7383 69.6746 34.9166 70.1447 35.1111 70.6148C35.4516 71.4416 35.0463 72.398 34.2195 72.7222C34.0412 72.8033 33.8305 72.8519 33.6197 72.8519ZM88.7045 71.2957C88.5262 71.2957 88.3479 71.2632 88.1857 71.2146C87.3428 70.9228 86.8889 69.9988 87.1807 69.1558C87.3428 68.6695 87.5049 68.1832 87.6346 67.6968C87.8777 66.8376 88.7693 66.3351 89.6285 66.5783C90.4877 66.8214 90.9902 67.713 90.7471 68.5722C90.585 69.1234 90.4229 69.6746 90.2445 70.2095C90.0014 70.8742 89.3691 71.2957 88.7045 71.2957ZM31.642 65.022C30.8314 65.022 30.1182 64.406 30.0371 63.5792C29.9723 63.0119 29.9236 62.4445 29.8912 61.8771C29.8426 60.9855 30.5234 60.2236 31.415 60.175C32.3066 60.1263 33.0686 60.8072 33.1172 61.6988C33.1496 62.2013 33.182 62.7201 33.2469 63.2226C33.3441 64.1142 32.7119 64.9086 31.8203 65.0058C31.7555 65.022 31.6906 65.022 31.642 65.022ZM90.2445 63.3685H90.1473C89.2557 63.3199 88.5748 62.558 88.6234 61.6664C88.6559 61.1638 88.6721 60.6451 88.6721 60.1425C88.6721 59.2509 89.4016 58.5214 90.2932 58.5214C91.1848 58.5214 91.9143 59.2509 91.9143 60.1425C91.9143 60.7099 91.8981 61.2773 91.8656 61.8447C91.817 62.7039 91.1037 63.3685 90.2445 63.3685ZM31.8527 56.949C31.7717 56.949 31.6744 56.949 31.5934 56.9328C30.7018 56.7869 30.1182 55.9601 30.2641 55.0685C30.3613 54.5011 30.4586 53.95 30.5883 53.3826C30.7828 52.5072 31.642 51.956 32.5174 52.1505C33.3928 52.3451 33.9439 53.2042 33.7494 54.0796C33.6359 54.5822 33.5387 55.0847 33.4576 55.5873C33.3117 56.3816 32.6309 56.949 31.8527 56.949ZM89.8717 56.8193C89.0936 56.8193 88.4127 56.2519 88.283 55.4738C88.202 54.9712 88.1047 54.4687 87.9912 53.9662C87.7967 53.0908 88.3479 52.2316 89.207 52.0208C90.0824 51.8263 90.9416 52.3775 91.1523 53.2367C91.282 53.7878 91.3955 54.3552 91.4766 54.9226C91.6225 55.798 91.0227 56.641 90.1473 56.7869C90.05 56.8193 89.9689 56.8193 89.8717 56.8193ZM34.2357 49.2326C34.0088 49.2326 33.7656 49.1839 33.5387 49.0705C32.7281 48.6814 32.3877 47.7249 32.7605 46.9144C33.0037 46.3957 33.2631 45.8931 33.5387 45.3906C33.9602 44.5962 34.949 44.3044 35.7434 44.7421C36.5377 45.1636 36.8295 46.1525 36.3918 46.9468C36.1486 47.4007 35.9217 47.8546 35.6947 48.3085C35.4354 48.8921 34.8518 49.2326 34.2357 49.2326ZM87.44 49.1191C86.8402 49.1191 86.2566 48.7787 85.9811 48.1951C85.7703 47.7412 85.5271 47.271 85.284 46.8333C84.8625 46.0552 85.1381 45.0664 85.9324 44.6287C86.7105 44.2072 87.6994 44.4828 88.1371 45.2771C88.4127 45.7796 88.6721 46.2822 88.9152 46.8009C89.3043 47.6115 88.9639 48.5841 88.1533 48.957C87.9102 49.0705 87.6832 49.1191 87.44 49.1191ZM38.6613 42.4564C38.2885 42.4564 37.8994 42.3267 37.5914 42.0511C36.9106 41.4675 36.8457 40.4462 37.4293 39.7654C37.8022 39.3439 38.1912 38.9062 38.5803 38.5009C39.1963 37.8525 40.2338 37.8363 40.866 38.4685C41.5145 39.0845 41.5307 40.122 40.8984 40.7542C40.5418 41.1109 40.2014 41.4999 39.8609 41.889C39.5691 42.2781 39.1152 42.4564 38.6613 42.4564ZM83.0145 42.3753C82.5605 42.3753 82.1228 42.1808 81.7986 41.8242C81.4582 41.4351 81.1178 41.0623 80.7611 40.7056C80.1289 40.0572 80.1451 39.0359 80.7936 38.4199C81.4258 37.7876 82.4633 37.8039 83.0793 38.4523C83.4684 38.8576 83.8736 39.2791 84.2465 39.7005C84.8301 40.3814 84.7652 41.4027 84.1006 41.9863C83.7602 42.2457 83.3873 42.3753 83.0145 42.3753ZM44.7404 37.1392C44.2055 37.1392 43.7029 36.8798 43.3787 36.4097C42.8924 35.664 43.1031 34.6589 43.8488 34.1726C44.3189 33.8646 44.8053 33.5566 45.3078 33.281C46.0859 32.8271 47.0748 33.1027 47.5287 33.8646C47.9826 34.6427 47.7232 35.6316 46.9451 36.0855C46.5074 36.3449 46.0697 36.6042 45.6482 36.896C45.3564 37.0582 45.0484 37.1392 44.7404 37.1392ZM76.9029 37.0906C76.5949 37.0906 76.2869 37.0095 76.0275 36.8312C75.6061 36.5556 75.1684 36.28 74.7145 36.0369C73.9363 35.583 73.677 34.5941 74.1147 33.816C74.5523 33.0378 75.5574 32.7785 76.3355 33.2162C76.8219 33.4917 77.3244 33.7998 77.7945 34.1078C78.5402 34.5941 78.751 35.5992 78.2646 36.3449C77.9566 36.8312 77.4379 37.0906 76.9029 37.0906ZM52.0354 33.6863C51.3383 33.6863 50.7061 33.2486 50.4953 32.5515C50.2197 31.6923 50.7061 30.7845 51.549 30.5251C52.084 30.3468 52.6514 30.2009 53.1863 30.055C54.0617 29.8281 54.9371 30.363 55.1641 31.2222C55.391 32.0976 54.8561 32.973 53.9969 33.2C53.5105 33.3296 53.008 33.4593 52.5217 33.6214C52.3596 33.6539 52.1975 33.6863 52.0354 33.6863ZM69.5918 33.6539C69.4297 33.6539 69.2676 33.6376 69.1055 33.5728C68.6191 33.4269 68.1328 33.281 67.6303 33.1675C66.7549 32.9568 66.2361 32.0652 66.4469 31.206C66.6576 30.3306 67.5492 29.8119 68.4084 30.0226C68.9596 30.1685 69.5107 30.3144 70.0619 30.4765C70.9211 30.7359 71.3912 31.6437 71.1318 32.5029C70.9211 33.2 70.2889 33.6539 69.5918 33.6539ZM59.9949 32.3408C59.1195 32.3408 58.4062 31.6437 58.3738 30.7683C58.3414 29.8767 59.0547 29.131 59.9463 29.0986C60.5137 29.0824 61.0973 29.0824 61.6484 29.0986C62.54 29.1148 63.2533 29.8605 63.2209 30.7683C63.2047 31.6437 62.4752 32.3408 61.5998 32.3408H61.5512C61.0486 32.3246 60.5299 32.3246 60.0111 32.3408H59.9949Z" fill="#005BFF"/>
<path d="M67.5492 120.237H54.1914C50.3008 120.237 47.6746 117.627 47.6746 113.72V104.966L47.5936 104.933C44.5459 104.009 41.5631 102.794 38.71 101.286L38.5317 101.189L32.0959 107.284C31.2367 108.127 29.8588 109.246 27.7514 109.246C25.9844 109.246 24.493 108.321 23.7797 107.868C23.7473 107.851 23.7311 107.835 23.6986 107.819L23.3096 107.624L13.4858 97.8006L13.3885 97.6871C10.9244 94.7367 11.0055 91.1541 13.583 88.5604L19.7594 82.384L19.6621 82.2057C18.5274 79.9523 17.1008 76.9209 16.0471 73.3869L16.0147 73.3059H7.26075C2.78654 73.3059 0.743958 69.934 0.743958 66.7891V53.5934C0.743958 50.3836 2.70548 47.0279 7.06622 46.7848H15.9984L16.0309 46.6875C16.9711 43.7047 18.2356 40.7057 19.6783 37.966L19.7432 37.8525L13.5668 31.6762C12.5942 30.7035 9.69239 27.1533 13.3236 22.598L13.4371 22.4521L23.0826 12.9688C23.3096 12.7418 25.336 10.8451 28.027 10.8451C29.567 10.8451 31.1233 11.5584 32.4039 12.8391L38.7262 19.1613L38.7748 19.1289C41.7576 17.3781 45.0322 16.2434 47.5449 15.449L47.6584 15.4166V6.5168C47.6584 2.04258 51.0303 0 54.1752 0H67.3871C68.1977 0 69.7539 0.1459 71.2291 1.08613C73.0447 2.25332 74.0336 4.16621 74.0336 6.50059V15.2545L74.1471 15.2869C77.1137 16.2271 80.1289 17.4754 82.8524 18.9344L82.9658 18.9992L89.0449 12.9201C90.6336 11.0883 92.433 10.683 93.6488 10.683C96.1291 10.683 97.9609 12.3203 98.4635 12.8229L107.963 22.3225C109.001 23.36 110.103 25.1594 110.103 27.1371C110.103 28.7258 109.39 30.2334 107.963 31.66L101.787 37.8363L101.819 37.885C103.44 40.6408 104.526 43.6236 105.596 46.5092L105.677 46.7686H114.431C118.322 46.7686 120.948 49.3785 120.948 53.2854V66.6432C120.948 70.5338 118.338 73.16 114.431 73.16H105.677L105.645 73.241C104.721 76.2887 103.505 79.2877 101.997 82.1246L101.933 82.2381L108.109 88.4145C109.681 89.9869 110.411 91.916 110.135 93.8613C109.941 95.2717 109.244 96.6172 108.109 97.752L98.8201 107.089C97.6692 108.548 95.4969 109.391 93.8272 109.391C92.3195 109.391 90.8768 108.743 89.5151 107.462C88.6721 106.83 87.6184 105.76 85.5434 103.669C84.8463 102.972 84.0682 102.178 83.2252 101.318L83.1441 101.237L83.0307 101.302C80.1776 102.81 77.1947 104.042 74.1471 104.95L74.066 104.982V113.736C74.066 117.627 71.4399 120.237 67.5492 120.237ZM54.159 113.752H67.5492V100.2L72.2342 98.7408C74.8928 97.9465 77.4865 96.8766 79.9668 95.5635L84.3113 93.2453L87.7967 96.7307C88.6721 97.606 89.4502 98.4004 90.1473 99.1137C91.5252 100.524 92.968 101.967 93.3895 102.275L93.6651 102.453L93.8758 102.68L93.9568 102.761L103.538 93.1805C103.57 93.1481 103.586 93.1156 103.619 93.0994C103.602 93.067 103.57 93.0508 103.538 93.0184L93.9731 83.4539L96.2912 79.1094C97.6043 76.6453 98.658 74.0353 99.4686 71.393L99.4848 71.3605L100.944 66.708H114.496V53.334V53.3178H100.944L99.5172 48.7463C98.5121 46.0066 97.5557 43.4291 96.2264 41.1758L96.1615 41.0623L93.8434 36.7178L103.408 27.1533L103.489 27.0723C103.456 27.0398 103.44 27.0074 103.408 26.975L93.9082 17.4754C93.8758 17.4592 93.8596 17.4268 93.811 17.3943L84.1817 26.9912L79.8371 24.673C77.4865 23.4248 74.8766 22.3387 72.3152 21.5119L67.5816 20.3285V6.5168V6.50059C67.5168 6.48438 67.4682 6.48438 67.4033 6.48438H54.1914H54.1752V20.1664L49.5227 21.6254C47.318 22.3225 44.4649 23.3113 42.0332 24.7379L41.9197 24.8027L37.5752 27.1209L27.8973 17.443C27.8 17.4916 27.719 17.5564 27.6541 17.6051L18.3328 26.7805C18.2518 26.8777 18.2031 26.9588 18.1545 27.0236L18.2031 27.0723L27.7676 36.6367L25.4494 40.9813C24.185 43.3643 23.0826 45.9904 22.2721 48.6004L20.8293 53.2367H7.42286C7.39044 53.2367 7.35802 53.2529 7.3256 53.2529C7.30939 53.334 7.29318 53.4312 7.29318 53.5609V66.7891H20.8293L22.2883 71.474C23.0016 73.8408 23.9904 76.24 25.4818 79.2391L27.7838 83.5512L18.2193 93.1156L18.1707 93.1643C18.2031 93.2291 18.2518 93.3102 18.3328 93.4074L27.2813 102.356C27.3785 102.404 27.5082 102.502 27.6541 102.567L37.5104 93.2453L41.7901 95.5311C44.2541 96.8441 46.8641 97.8979 49.5065 98.7084L49.5389 98.7246L54.1914 100.184V113.736C54.159 113.736 54.159 113.752 54.159 113.752ZM27.6703 17.5727L27.6379 17.6051C27.6541 17.5889 27.6703 17.5889 27.6703 17.5727Z" fill="#005BFF"/>
<path d="M84.2627 76.1426L82.4795 74.4891L83.0631 73.3867C87.4238 65.1516 85.8351 54.809 79.2049 48.2436C73.758 42.8453 65.8957 40.8352 58.617 42.8129L71.3912 55.4574C74.3254 58.3592 74.3416 63.109 71.4398 66.0432L66.9008 70.6309C65.4904 72.0574 63.6262 72.8356 61.616 72.8518H61.5836C59.6058 72.8518 57.7254 72.0899 56.315 70.6795L43.5408 58.035C41.6441 65.3299 43.7353 73.176 49.1822 78.5742C55.8125 85.1397 66.1713 86.6148 74.3578 82.1731L75.4602 81.5732L104.98 112.828C105.888 113.801 107.12 114.336 108.449 114.352C109.779 114.368 111.027 113.849 111.951 112.909L114.188 110.656C115.128 109.715 115.615 108.467 115.598 107.138C115.566 105.809 115.015 104.577 114.042 103.685L84.8625 76.6776L84.2627 76.1426Z" fill="#E6E6E6"/>
<path d="M86.4836 73.7758C88.4775 69.4637 89.207 64.568 88.51 59.8506C89.207 64.5842 88.4775 69.4799 86.4836 73.7758ZM118.533 105.063C118.597 105.322 118.662 105.582 118.711 105.857C118.662 105.582 118.614 105.322 118.533 105.063Z" fill="#005BFF"/>
<path d="M118.711 105.857C118.662 105.598 118.597 105.322 118.533 105.063C118.484 104.885 118.435 104.706 118.371 104.528C117.933 103.312 117.22 102.21 116.247 101.302L87.0672 74.2945L86.4998 73.7758C88.4938 69.4637 89.2232 64.568 88.5262 59.8506C87.748 54.5334 85.3164 49.7349 81.4906 45.9416C74.5037 39.0357 64.1125 36.9445 55.002 40.6244L52.7162 41.5484L69.1055 57.7594C69.916 58.5537 70.3537 59.6236 70.3699 60.7584C70.3699 61.8932 69.9322 62.9631 69.1379 63.7574L64.5988 68.3451C63.8045 69.1557 62.7346 69.5933 61.5998 69.6096H61.5836C60.465 69.6096 59.3951 69.1719 58.6008 68.3775L42.1953 52.1666L41.3037 54.4685C37.7211 63.6115 39.9258 73.9865 46.9127 80.8924C50.7385 84.6857 55.5693 87.0525 60.8865 87.782C65.6201 88.4142 70.4996 87.6523 74.7955 85.6097L102.63 115.081C104.154 116.686 106.212 117.594 108.417 117.61H108.514C110.687 117.61 112.729 116.767 114.269 115.211L116.506 112.958C118.063 111.385 118.889 109.294 118.841 107.089C118.824 106.668 118.792 106.246 118.711 105.857ZM108.449 114.368C107.12 114.352 105.888 113.817 104.98 112.844L75.4602 81.5894L74.3578 82.1892C66.1713 86.631 55.8125 85.1558 49.1822 78.5904C43.7354 73.1922 41.6441 65.3623 43.5408 58.0512L56.315 70.6957C57.7254 72.0898 59.5897 72.868 61.5836 72.868H61.616C63.61 72.8517 65.4904 72.0736 66.9008 70.6471L71.4399 66.0594C74.3416 63.1252 74.3254 58.3754 71.3912 55.4736L58.617 42.8291C65.8957 40.8514 73.758 42.8615 79.2049 48.2598C85.8352 54.8252 87.4238 65.1516 83.0631 73.4029L82.4795 74.5053L84.2627 76.1588L84.8463 76.7099L114.026 103.717C114.999 104.625 115.55 105.841 115.582 107.17C115.615 108.5 115.112 109.748 114.172 110.688L111.951 112.925C111.027 113.865 109.779 114.368 108.449 114.368Z" fill="#005BFF"/>
<path d="M113.929 103.004C113.54 103.004 113.134 102.858 112.826 102.566L86.3053 78.023C85.6406 77.407 85.6082 76.3857 86.2242 75.7373C86.8402 75.0726 87.8615 75.0402 88.51 75.6562L115.031 100.2C115.696 100.816 115.728 101.837 115.112 102.485C114.788 102.826 114.35 103.004 113.929 103.004Z" fill="#06F3FF"/>
</svg>
