<svg width="121" height="121" viewBox="0 0 121 121" fill="none" xmlns="http://www.w3.org/2000/svg">
<path d="M45.9304 53.1287L43.1407 60.7919H48.7856L45.9304 53.1287Z" fill="white"/>
<path d="M93.9939 21.3269H26.2061C23.4985 21.3269 21.2832 23.5422 21.2832 26.2498V94.0376C21.2832 96.7452 23.4985 98.9605 26.2061 98.9605H93.9939C96.7015 98.9605 98.9168 96.7452 98.9168 94.0376V26.2498C98.9168 23.5258 96.7015 21.3269 93.9939 21.3269ZM77.7813 48.3206H81.9493V68.9638H77.7813V48.3206ZM58.6642 48.3206H65.3593C67.9027 48.3206 69.5437 48.4191 70.315 48.6324C71.4964 48.9442 72.481 49.617 73.2851 50.6508C74.0891 51.6846 74.483 53.0302 74.483 54.6711C74.483 55.9347 74.2533 57.0013 73.7938 57.871C73.3343 58.7407 72.7436 59.4135 72.038 59.9058C71.3323 60.3981 70.6103 60.7262 69.8719 60.8903C68.8709 61.0873 67.4433 61.1857 65.5398 61.1857H62.8158V68.9638H58.6642V48.3206ZM43.7807 48.3206H48.1949L56.4489 68.9638H51.9198L50.1148 64.2707H41.8608L40.1542 68.9638H35.7236L43.7807 48.3206ZM81.375 93.1679H32.8355C29.6521 93.1679 27.0758 90.5916 27.0758 87.4082V39C27.0758 38.0975 27.8142 37.359 28.7167 37.359C29.6193 37.359 30.3577 38.0975 30.3577 39V87.4082C30.3577 88.7702 31.4735 89.886 32.8355 89.886H81.375C82.2775 89.886 83.016 90.6245 83.016 91.527C83.016 92.4295 82.2939 93.1679 81.375 93.1679Z" fill="white"/>
<path d="M68.4114 57.3457C68.9693 57.1324 69.396 56.7878 69.7078 56.3284C70.0195 55.8689 70.1836 55.3274 70.1836 54.7202C70.1836 53.9654 69.9703 53.3418 69.5273 52.8659C69.0842 52.3737 68.5263 52.0783 67.8535 51.947C67.3612 51.8485 66.3602 51.7993 64.8505 51.7993H62.8322V57.6575H65.1131C66.754 57.6739 67.8535 57.5591 68.4114 57.3457Z" fill="white"/>
<path d="M81.375 89.8859H32.8356C31.4736 89.8859 30.3577 88.77 30.3577 87.408V38.9998C30.3577 38.0973 29.6193 37.3589 28.7168 37.3589C27.8142 37.3589 27.0758 38.0973 27.0758 38.9998V87.408C27.0758 90.5915 29.6521 93.1678 32.8356 93.1678H81.375C82.2776 93.1678 83.016 92.4294 83.016 91.5268C83.016 90.6243 82.294 89.8859 81.375 89.8859Z" fill="#06F3FF"/>
<path d="M116.918 42.1342C118.723 42.1342 120.2 40.6573 120.2 38.8523C120.2 37.0472 118.723 35.5704 116.918 35.5704H105.481V26.2497C105.481 19.9156 100.328 14.763 93.9939 14.763H89.4321V3.71941C89.4321 1.91436 87.9552 0.4375 86.1502 0.4375C84.3451 0.4375 82.8683 1.91436 82.8683 3.71941V14.763H75.2378V3.71941C75.2378 1.91436 73.761 0.4375 71.9559 0.4375C70.1509 0.4375 68.674 1.91436 68.674 3.71941V14.763H61.0435V3.71941C61.0435 1.91436 59.5667 0.4375 57.7616 0.4375C55.9566 0.4375 54.4797 1.91436 54.4797 3.71941V14.763H46.8493V3.71941C46.8493 1.91436 45.3724 0.4375 43.5674 0.4375C41.7623 0.4375 40.2855 1.91436 40.2855 3.71941V14.763H26.2061C19.872 14.763 14.7194 19.9156 14.7194 26.2497V35.5704H3.28191C1.47686 35.5704 0 37.0472 0 38.8523C0 40.6573 1.47686 42.1342 3.28191 42.1342H14.7194V49.7646H3.28191C1.47686 49.7646 0 51.2415 0 53.0465C0 54.8516 1.47686 56.3284 3.28191 56.3284H14.7194V63.9589H3.28191C1.47686 63.9589 0 65.4358 0 67.2408C0 69.0459 1.47686 70.5227 3.28191 70.5227H14.7194V78.1532H3.28191C1.47686 78.1532 0 79.63 0 81.4351C0 83.2401 1.47686 84.717 3.28191 84.717H14.7194V94.0376C14.7194 100.372 19.872 105.524 26.2061 105.524H31.2602V117.421C31.2602 119.226 32.7371 120.703 34.5421 120.703C36.3472 120.703 37.824 119.226 37.824 117.421V105.524H45.4545V117.421C45.4545 119.226 46.9313 120.703 48.7364 120.703C50.5414 120.703 52.0183 119.226 52.0183 117.421V105.524H59.6487V117.421C59.6487 119.226 61.1256 120.703 62.9306 120.703C64.7357 120.703 66.2126 119.226 66.2126 117.421V105.524H73.843V117.421C73.843 119.226 75.3199 120.703 77.1249 120.703C78.93 120.703 80.4068 119.226 80.4068 117.421V105.524H93.9939C100.328 105.524 105.481 100.372 105.481 94.0376V84.717H116.918C118.723 84.717 120.2 83.2401 120.2 81.4351C120.2 79.63 118.723 78.1532 116.918 78.1532H105.481V70.5227H116.918C118.723 70.5227 120.2 69.0459 120.2 67.2408C120.2 65.4358 118.723 63.9589 116.918 63.9589H105.481V56.3284H116.918C118.723 56.3284 120.2 54.8516 120.2 53.0465C120.2 51.2415 118.723 49.7646 116.918 49.7646H105.481V42.1342H116.918ZM98.9168 94.0212C98.9168 96.7288 96.7015 98.9441 93.9939 98.9441H26.2061C23.4985 98.9441 21.2832 96.7288 21.2832 94.0212V26.2497C21.2832 23.5422 23.4985 21.3269 26.2061 21.3269H93.9939C96.7015 21.3269 98.9168 23.5422 98.9168 26.2497V94.0212Z" fill="#005BFF"/>
<path d="M41.8608 64.2706H50.1148L51.9199 68.9638H56.4489L48.1785 48.3206H43.7643L35.7236 68.9638H40.1542L41.8608 64.2706ZM45.9304 53.1286L48.7692 60.7918H43.1407L45.9304 53.1286ZM62.8322 61.1856H65.5562C67.4433 61.1856 68.8873 61.0872 69.8883 60.8903C70.6268 60.7262 71.3488 60.398 72.0544 59.9057C72.76 59.4134 73.3507 58.7406 73.8102 57.8709C74.2697 57.0012 74.4994 55.9346 74.4994 54.6711C74.4994 53.0301 74.1056 51.6845 73.3015 50.6507C72.4974 49.6169 71.5129 48.9441 70.3314 48.6323C69.5601 48.419 67.9028 48.3206 65.3757 48.3206H58.6642V68.9638H62.8322V61.1856ZM62.8322 51.8158H64.8506C66.3603 51.8158 67.3448 51.865 67.8535 51.9635C68.5263 52.0783 69.0843 52.3901 69.5273 52.8824C69.9704 53.3747 70.1837 53.9983 70.1837 54.7367C70.1837 55.3438 70.0196 55.8854 69.7078 56.3448C69.396 56.8043 68.953 57.1489 68.4115 57.3622C67.8535 57.5755 66.7541 57.6904 65.1131 57.6904H62.8322V51.8158ZM77.7813 48.3206H81.9494V68.9638H77.7813V48.3206Z" fill="#005BFF"/>
</svg>
