<svg width="70" height="71" viewBox="0 0 70 71" fill="none" xmlns="http://www.w3.org/2000/svg">
<path d="M26.7481 31.1228L25.1235 35.5856H28.4109L26.7481 31.1228Z" fill="white"/>
<path d="M54.7386 12.6028H15.2614C13.6846 12.6028 12.3945 13.8929 12.3945 15.4697V54.9468C12.3945 56.5236 13.6846 57.8137 15.2614 57.8137H54.7386C56.3153 57.8137 57.6054 56.5236 57.6054 54.9468V15.4697C57.6054 13.8833 56.3153 12.6028 54.7386 12.6028ZM45.2969 28.3229H47.7242V40.3448H45.2969V28.3229ZM34.1638 28.3229H38.0628C39.544 28.3229 40.4996 28.3803 40.9488 28.5045C41.6368 28.6861 42.2102 29.0779 42.6785 29.6799C43.1467 30.282 43.3761 31.0656 43.3761 32.0212C43.3761 32.757 43.2423 33.3782 42.9747 33.8847C42.7072 34.3912 42.3631 34.783 41.9522 35.0697C41.5413 35.3564 41.1208 35.5475 40.6908 35.6431C40.1078 35.7577 39.2764 35.8151 38.1679 35.8151H36.5816V40.3448H34.1638V28.3229ZM25.4962 28.3229H28.0669L32.8737 40.3448H30.2362L29.185 37.6117H24.3781L23.3843 40.3448H20.8041L25.4962 28.3229ZM47.3898 54.4403H19.1222C17.2683 54.4403 15.7679 52.94 15.7679 51.0861V22.8949C15.7679 22.3693 16.1979 21.9393 16.7235 21.9393C17.2491 21.9393 17.6792 22.3693 17.6792 22.8949V51.0861C17.6792 51.8792 18.329 52.5291 19.1222 52.5291H47.3898C47.9154 52.5291 48.3454 52.9591 48.3454 53.4847C48.3454 54.0103 47.9249 54.4403 47.3898 54.4403Z" fill="white"/>
<path d="M39.8402 33.5787C40.1651 33.4544 40.4136 33.2538 40.5952 32.9862C40.7767 32.7186 40.8723 32.4032 40.8723 32.0497C40.8723 31.6101 40.7481 31.2469 40.49 30.9698C40.232 30.6831 39.9071 30.5111 39.5153 30.4346C39.2286 30.3773 38.6457 30.3486 37.7665 30.3486H36.5911V33.7602H37.9194C38.875 33.7698 39.5153 33.7029 39.8402 33.5787Z" fill="white"/>
<path d="M47.3898 52.529H19.1222C18.329 52.529 17.6792 51.8791 17.6792 51.086V22.8948C17.6792 22.3692 17.2492 21.9392 16.7236 21.9392C16.198 21.9392 15.7679 22.3692 15.7679 22.8948V51.086C15.7679 52.9399 17.2683 54.4402 19.1222 54.4402H47.3898C47.9154 54.4402 48.3454 54.0102 48.3454 53.4846C48.3454 52.959 47.9249 52.529 47.3898 52.529Z" fill="#06F3FF"/>
<path d="M68.0887 24.7201C69.1399 24.7201 70 23.86 70 22.8088C70 21.7576 69.1399 20.8976 68.0887 20.8976H61.428V15.4696C61.428 11.7808 58.4273 8.78016 54.7386 8.78016H52.0819V2.34876C52.0819 1.29757 51.2218 0.4375 50.1707 0.4375C49.1195 0.4375 48.2594 1.29757 48.2594 2.34876V8.78016H43.8157V2.34876C43.8157 1.29757 42.9556 0.4375 41.9044 0.4375C40.8532 0.4375 39.9932 1.29757 39.9932 2.34876V8.78016H35.5495V2.34876C35.5495 1.29757 34.6894 0.4375 33.6382 0.4375C32.587 0.4375 31.727 1.29757 31.727 2.34876V8.78016H27.2833V2.34876C27.2833 1.29757 26.4232 0.4375 25.372 0.4375C24.3208 0.4375 23.4608 1.29757 23.4608 2.34876V8.78016H15.2614C11.5727 8.78016 8.57201 11.7808 8.57201 15.4696V20.8976H1.91126C0.860068 20.8976 0 21.7576 0 22.8088C0 23.86 0.860068 24.7201 1.91126 24.7201H8.57201V29.1638H1.91126C0.860068 29.1638 0 30.0238 0 31.075C0 32.1262 0.860068 32.9863 1.91126 32.9863H8.57201V37.43H1.91126C0.860068 37.43 0 38.2901 0 39.3413C0 40.3925 0.860068 41.2525 1.91126 41.2525H8.57201V45.6962H1.91126C0.860068 45.6962 0 46.5563 0 47.6075C0 48.6587 0.860068 49.5187 1.91126 49.5187H8.57201V54.9467C8.57201 58.6355 11.5727 61.6361 15.2614 61.6361H18.2048V68.5645C18.2048 69.6157 19.0648 70.4757 20.116 70.4757C21.1672 70.4757 22.0273 69.6157 22.0273 68.5645V61.6361H26.471V68.5645C26.471 69.6157 27.3311 70.4757 28.3823 70.4757C29.4334 70.4757 30.2935 69.6157 30.2935 68.5645V61.6361H34.7372V68.5645C34.7372 69.6157 35.5973 70.4757 36.6485 70.4757C37.6997 70.4757 38.5597 69.6157 38.5597 68.5645V61.6361H43.0034V68.5645C43.0034 69.6157 43.8635 70.4757 44.9147 70.4757C45.9659 70.4757 46.8259 69.6157 46.8259 68.5645V61.6361H54.7386C58.4273 61.6361 61.428 58.6355 61.428 54.9467V49.5187H68.0887C69.1399 49.5187 70 48.6587 70 47.6075C70 46.5563 69.1399 45.6962 68.0887 45.6962H61.428V41.2525H68.0887C69.1399 41.2525 70 40.3925 70 39.3413C70 38.2901 69.1399 37.43 68.0887 37.43H61.428V32.9863H68.0887C69.1399 32.9863 70 32.1262 70 31.075C70 30.0238 69.1399 29.1638 68.0887 29.1638H61.428V24.7201H68.0887ZM57.6055 54.9372C57.6055 56.514 56.3154 57.8041 54.7386 57.8041H15.2614C13.6846 57.8041 12.3945 56.514 12.3945 54.9372V15.4696C12.3945 13.8928 13.6846 12.6027 15.2614 12.6027H54.7386C56.3154 12.6027 57.6055 13.8928 57.6055 15.4696V54.9372Z" fill="#005BFF"/>
<path d="M24.3781 37.6115H29.185L30.2362 40.3446H32.8737L28.0573 28.3228H25.4867L20.8041 40.3446H23.3843L24.3781 37.6115ZM26.7481 31.1228L28.4013 35.5856H25.1235L26.7481 31.1228ZM36.5911 35.8149H38.1775C39.2764 35.8149 40.1174 35.7576 40.7003 35.6429C41.1304 35.5473 41.5508 35.3562 41.9618 35.0695C42.3727 34.7828 42.7167 34.391 42.9843 33.8845C43.2519 33.378 43.3856 32.7569 43.3856 32.021C43.3856 31.0654 43.1563 30.2818 42.688 29.6797C42.2198 29.0777 41.6464 28.6859 40.9583 28.5043C40.5092 28.3801 39.544 28.3228 38.0723 28.3228H34.1638V40.3446H36.5911V35.8149ZM36.5911 30.3582H37.7665C38.6457 30.3582 39.2191 30.3869 39.5153 30.4443C39.9071 30.5111 40.2321 30.6927 40.4901 30.9794C40.7481 31.2661 40.8723 31.6292 40.8723 32.0593C40.8723 32.4129 40.7768 32.7282 40.5952 32.9958C40.4136 33.2634 40.1556 33.464 39.8403 33.5883C39.5153 33.7125 38.8751 33.7794 37.9194 33.7794H36.5911V30.3582ZM45.2969 28.3228H47.7242V40.3446H45.2969V28.3228Z" fill="#005BFF"/>
</svg>
