<svg width="139" height="71" viewBox="0 0 139 71" fill="none" xmlns="http://www.w3.org/2000/svg">
<path d="M69.3388 0.925781C31.0443 0.925781 0 16.4481 0 35.595C0 54.7423 31.0443 70.2643 69.3388 70.2643C107.633 70.2643 138.678 54.742 138.678 35.595C138.678 16.4478 107.633 0.925781 69.3388 0.925781ZM69.3388 64.791C34.067 64.791 5.47356 51.7196 5.47356 35.595C5.47356 19.4705 34.0673 6.39906 69.3388 6.39906C104.611 6.39906 133.204 19.4705 133.204 35.595C133.204 51.7196 104.61 64.791 69.3388 64.791ZM60.5944 29.5127V24.0383H80.1557V29.5127H73.1133V47.1517H67.6378V29.5127H60.5944ZM103.767 24.0383V47.152H98.2942L88.3667 33.3926V47.152H82.8932V24.0383H88.3664L98.2939 37.7977V24.0383H103.767ZM34.7471 47.152V24.0383H40.2207L46.3019 33.3926L52.3831 24.0383H57.8544V47.152H52.3831V34.0784L48.2315 40.4599H44.3723L40.2207 34.0784V47.152H34.7471Z" fill="#FFCB05"/>
</svg>
