<svg width="70" height="67" viewBox="0 0 70 67" fill="none" xmlns="http://www.w3.org/2000/svg">
<path d="M35 0L0 25.4366L13.3654 66.5845H56.6346L70 25.4366L35 0Z" fill="white"/>
<path d="M52.9493 54.837C52.9493 52.9585 51.4213 51.4395 49.5518 51.4395C48.5901 51.4395 47.7182 51.8439 47.098 52.4821L51.0079 57.902C52.1494 57.3537 52.9493 56.1852 52.9493 54.837ZM46.1453 54.837C46.1453 56.5268 47.3856 57.9289 48.9945 58.1896L46.1902 54.2977C46.1632 54.4775 46.1453 54.6572 46.1453 54.837Z" fill="#E6E6E6"/>
<path d="M51.008 57.9021L47.0981 52.4822C46.6307 52.9675 46.3072 53.5967 46.1903 54.2978L48.9946 58.1897C49.1744 58.2166 49.3541 58.2346 49.5429 58.2346C50.0732 58.2346 50.5676 58.1178 51.008 57.9021Z" fill="#E6E6E6"/>
<path d="M37.1931 52.7067C36.9864 52.2573 36.4471 52.0596 35.9977 52.2663C35.5482 52.473 35.3505 53.0123 35.5572 53.4617C35.6921 53.7583 35.8449 54.046 35.9977 54.3246C36.1594 54.6212 36.465 54.783 36.7796 54.783C36.9324 54.783 37.0762 54.747 37.2201 54.6661C37.6515 54.4235 37.8043 53.8752 37.5616 53.4437C37.4358 53.21 37.3009 52.9584 37.1931 52.7067ZM36.2763 49.5339C36.2493 49.2642 36.2314 49.0126 36.2314 48.7789V48.7519C36.2314 48.2576 35.8359 47.8531 35.3415 47.8441H35.3325C34.8382 47.8441 34.4337 48.2396 34.4337 48.7339V48.7789C34.4337 49.0845 34.4517 49.408 34.4876 49.7406C34.5416 50.199 34.9281 50.5406 35.3775 50.5406C35.4134 50.5406 35.4494 50.5406 35.4763 50.5316C35.9797 50.4776 36.3302 50.0282 36.2763 49.5339ZM40.267 56.4278C40.0423 56.284 39.8266 56.1222 39.6199 55.9514C39.2334 55.6369 38.6671 55.6908 38.3526 56.0773C38.038 56.4638 38.0919 57.03 38.4784 57.3446C38.7391 57.5603 39.0087 57.7581 39.2783 57.9378C39.4311 58.0367 39.6019 58.0816 39.7727 58.0816C40.0693 58.0816 40.3569 57.9378 40.5277 57.6772C40.7974 57.2547 40.6805 56.6975 40.267 56.4278ZM44.0421 57.5693C43.7724 57.5603 43.4938 57.5424 43.2331 57.5064C42.7388 57.4435 42.2894 57.794 42.2265 58.2794C42.1636 58.7737 42.5141 59.2231 42.9995 59.2861C43.323 59.331 43.6466 59.349 43.9792 59.358H44.0061C44.4915 59.358 44.887 58.9715 44.905 58.4861C44.9229 57.9918 44.5364 57.5783 44.0421 57.5693ZM37.7144 43.9882C37.292 43.7275 36.7347 43.8713 36.483 44.2938C36.3212 44.5634 36.1684 44.8151 36.0156 45.0488C35.755 45.4712 35.8808 46.0285 36.3033 46.2891C36.4471 46.379 36.6178 46.424 36.7796 46.424C37.0762 46.424 37.3729 46.2712 37.5436 46.0015C37.7054 45.7409 37.8672 45.4802 38.02 45.2196C38.2807 44.7971 38.1368 44.2488 37.7144 43.9882ZM40.4468 36.4021C40.339 36.6718 40.2311 36.9504 40.1232 37.2201C39.9345 37.6785 40.1502 38.2088 40.6086 38.3975C40.7254 38.4425 40.8423 38.4694 40.9502 38.4694C41.3007 38.4694 41.6333 38.2627 41.7771 37.9122C41.8939 37.6245 42.0108 37.3369 42.1186 37.0583C42.2984 36.5999 42.0647 36.0786 41.6063 35.8988C41.4715 35.8449 41.3366 35.8269 41.2018 35.8449L40.8243 35.9707C40.6625 36.0516 40.5187 36.2044 40.4468 36.4021Z" fill="#005BFF"/>
<path d="M35 0L0 25.4366L13.3654 66.5845H56.6256L69.991 25.4366L35 0ZM35.8988 5.10529L64.8857 26.1646L61.0028 27.4409L35.8988 9.2039V5.10529ZM35.8988 11.424L58.8906 28.133L43.332 33.2383C43.386 33.0316 43.4309 32.8159 43.4759 32.6091C43.5747 32.1238 43.2691 31.6474 42.7838 31.5485C42.2984 31.4497 41.822 31.7553 41.7232 32.2406C41.6692 32.5103 41.5973 32.7979 41.5254 33.0855C41.4625 33.3372 41.5164 33.5978 41.6423 33.7956L37.1661 35.2696C36.8516 34.8292 36.4111 34.4967 35.8988 34.3079V11.424ZM4.566 27.8544L11.1094 29.9576C11.2262 29.3554 11.415 28.7892 11.6846 28.2499L5.13225 26.1466L34.1012 5.0963V19.9448C34.0472 19.9358 34.0023 19.9268 33.9484 19.9268C33.6248 19.9088 33.3012 19.9088 32.9777 19.9178C32.4833 19.9358 32.0878 20.3493 32.1058 20.8436C32.1238 21.338 32.5282 21.7334 33.0316 21.7155C33.3102 21.7065 33.5888 21.7065 33.8585 21.7244H33.9034C33.9753 21.7244 34.0383 21.7155 34.1012 21.6975V34.2989C33.6518 34.4607 33.2653 34.7304 32.9687 35.0899L24.0973 32.2406C23.9985 32.8428 23.8187 33.4181 23.567 33.9574L32.3395 36.7797V36.7976C32.3395 37.4448 32.5732 38.038 32.9597 38.4964L15.6484 61.9556L4.566 27.8544ZM17.1225 62.9892L34.5236 39.4222C34.6764 39.4491 34.8382 39.4671 35 39.4671C35.1528 39.4671 35.3056 39.4491 35.4584 39.4312L44.905 52.518C44.5544 53.2191 44.3567 54.01 44.3567 54.8459C44.3567 57.7131 46.6846 60.0411 49.5519 60.0411C49.8035 60.0411 50.0552 60.0231 50.2979 59.9872L52.464 62.9982H17.1225V62.9892ZM46.1453 54.8369C46.1453 54.6572 46.1633 54.4774 46.1903 54.2976C46.2981 53.5966 46.6307 52.9674 47.0981 52.482C47.7183 51.8349 48.5901 51.4394 49.5519 51.4394C51.4304 51.4394 52.9494 52.9674 52.9494 54.8369C52.9494 56.1851 52.1584 57.3536 51.008 57.9019C50.5675 58.1176 50.0732 58.2345 49.5429 58.2345C49.3541 58.2345 49.1744 58.2165 48.9946 58.1895C47.3857 57.9289 46.1453 56.5267 46.1453 54.8369ZM54.2257 62.36L52.0776 59.376C53.6685 58.4861 54.747 56.7874 54.747 54.8369C54.747 51.9697 52.4191 49.6418 49.5519 49.6418C48.1947 49.6418 46.9633 50.1631 46.0375 51.0169L39.7008 42.2355C39.7458 42.1816 39.7907 42.1186 39.8267 42.0557C39.9705 41.7861 40.1143 41.5074 40.2491 41.2468C40.4738 40.8064 40.294 40.2671 39.8536 40.0424C39.4132 39.8177 38.8739 39.9974 38.6492 40.4378C38.6132 40.5008 38.5773 40.5727 38.5503 40.6356L37.0223 38.5234C37.3819 38.1009 37.6066 37.5706 37.6515 36.9954L40.8243 35.9527C40.9412 35.8808 41.067 35.8359 41.2018 35.8269L65.425 27.8724L54.2257 62.36Z" fill="#005BFF"/>
<path d="M21.3469 25.6523L21.275 25.7242C21.7784 26.0657 22.2278 26.4702 22.6143 26.9286L22.6412 26.9016C22.9828 26.5421 22.9738 25.9759 22.6143 25.6343C22.2637 25.2838 21.6975 25.2928 21.3469 25.6523ZM42.0108 28.0611C42.0377 28.3218 42.0557 28.6004 42.0647 28.879C42.0737 29.3644 42.4782 29.7509 42.9635 29.7509H42.9905C43.4848 29.7419 43.8803 29.3285 43.8623 28.8251C43.8533 28.4926 43.8354 28.169 43.7994 27.8544C43.7455 27.36 43.2961 27.0095 42.8107 27.0634C42.3074 27.1174 41.9568 27.5668 42.0108 28.0611ZM24.7085 24.8164C24.8883 24.8164 25.077 24.7625 25.2388 24.6456C25.4725 24.4748 25.7062 24.313 25.9489 24.1513C26.3623 23.8816 26.4792 23.3243 26.2006 22.9019C25.9309 22.4884 25.3647 22.3716 24.9512 22.6502C24.6905 22.821 24.4299 23.0008 24.1782 23.1895C23.7737 23.4861 23.6839 24.0434 23.9805 24.4479C24.1602 24.6906 24.4389 24.8164 24.7085 24.8164ZM37.8852 22.6952C38.002 22.7491 38.1279 22.7761 38.2447 22.7761C38.5863 22.7761 38.9188 22.5783 39.0716 22.2368C39.2694 21.7784 39.0716 21.2481 38.6132 21.0503C38.3166 20.9245 38.02 20.7987 37.7234 20.6908C37.256 20.52 36.7437 20.7627 36.5729 21.2301C36.4021 21.6975 36.6448 22.2098 37.1122 22.3806C37.3639 22.4795 37.6245 22.5873 37.8852 22.6952ZM40.9951 25.095C41.1659 25.3557 41.4535 25.4995 41.7411 25.4995C41.9119 25.4995 42.0827 25.4545 42.2355 25.3467C42.6489 25.0681 42.7568 24.5108 42.4871 24.0973C42.2984 23.8187 42.0917 23.5401 41.858 23.2884C41.5254 22.9199 40.9592 22.8839 40.5906 23.2165C40.2221 23.5491 40.1862 24.1153 40.5187 24.4838C40.6895 24.6726 40.8513 24.8793 40.9951 25.095ZM28.6274 22.6412C28.7352 22.6412 28.8431 22.6233 28.9509 22.5783C29.2116 22.4795 29.4812 22.3806 29.7419 22.2907C30.2183 22.1379 30.4699 21.6346 30.3261 21.1582C30.1733 20.6818 29.67 20.4212 29.1936 20.574C28.897 20.6728 28.5914 20.7807 28.2948 20.8975C27.8364 21.0773 27.6027 21.5986 27.7825 22.066C27.9353 22.4255 28.2678 22.6412 28.6274 22.6412ZM40.8243 35.9527L41.2018 35.8269C41.067 35.8449 40.9412 35.8808 40.8243 35.9527Z" fill="#005BFF"/>
<path d="M22.3895 31.1891C22.3895 28.5466 20.2324 26.3894 17.5899 26.3894C15.8102 26.3894 14.2552 27.3691 13.4193 28.8162L22.3626 31.6924C22.3806 31.5217 22.3895 31.3599 22.3895 31.1891ZM12.7902 31.1891C12.7902 33.8316 14.9473 35.9888 17.5899 35.9888C19.4324 35.9888 21.0413 34.9372 21.8413 33.4092L12.8351 30.515C12.8081 30.7307 12.7902 30.9554 12.7902 31.1891Z" fill="white"/>
<path d="M21.8412 33.4091C22.1199 32.8878 22.2996 32.3036 22.3626 31.6924L13.4193 28.8162C13.1227 29.3285 12.925 29.9037 12.8351 30.5149L21.8412 33.4091Z" fill="white"/>
<path d="M22.6144 26.9287C22.2279 26.4703 21.7785 26.0659 21.2751 25.7243C20.2235 25.0053 18.9472 24.5918 17.581 24.5918C15.0014 24.5918 12.7543 26.0838 11.6757 28.25C11.4061 28.7803 11.2173 29.3555 11.1005 29.9577C11.0286 30.3532 10.9836 30.7667 10.9836 31.1891C10.9836 34.8293 13.9408 37.7865 17.581 37.7865C20.2235 37.7865 22.5155 36.2225 23.5671 33.9665C23.8188 33.4272 23.9985 32.8519 24.0974 32.2497C24.1513 31.9082 24.1873 31.5487 24.1873 31.1891C24.1873 29.5623 23.5941 28.0792 22.6144 26.9287ZM22.3627 31.6835C22.2998 32.2947 22.12 32.8789 21.8414 33.4002C21.0414 34.9282 19.4325 35.9798 17.59 35.9798C14.9474 35.9798 12.7903 33.8227 12.7903 31.1801C12.7903 30.9464 12.8082 30.7217 12.8352 30.506C12.9251 29.8948 13.1228 29.3196 13.4194 28.8073C14.2464 27.3602 15.8013 26.3804 17.59 26.3804C20.2325 26.3804 22.3897 28.5376 22.3897 31.1801C22.3897 31.3599 22.3807 31.5217 22.3627 31.6835Z" fill="#06F3FF"/>
</svg>
