<svg width="70" height="62" viewBox="0 0 70 62" fill="none" xmlns="http://www.w3.org/2000/svg">
<path d="M40.698 8.73207C38.3873 7.1581 36.7212 5.49204 35.6663 4.27808C34.6114 5.49204 32.937 7.14973 30.6179 8.73207C26.2895 11.6791 21.3332 13.3033 15.8494 13.5795V33.0783C15.8494 33.7899 15.9415 34.6188 16.1341 35.5397C16.1341 35.5397 18.5201 50.5594 35.6663 58.3204C35.6663 58.3204 48.1157 53.6069 53.5828 40.404C54.8553 37.4988 55.4581 34.8951 55.4581 33.0783V13.5795C49.9744 13.3033 45.018 11.6791 40.698 8.73207Z" fill="white"/>
<path d="M44.0048 30.1396L47.7304 22.1526H42.4308L38.7052 30.1396H44.0048ZM27.5451 22.1526L23.8195 30.1396H29.1191L32.8447 22.1526H27.5451ZM40.2876 22.1526H34.988L31.2624 30.1396H36.5619L40.2876 22.1526ZM17.2557 22.1526V30.1396H21.6762L25.4019 22.1526H17.2557ZM54.0598 30.1396V22.1526H49.8737L46.1481 30.1396H54.0598Z" fill="#E6E6E6"/>
<path d="M35.6582 58.3205C28.9269 55.407 24.0543 50.6934 20.8227 45.9715C19.0729 45.3855 17.3901 44.7576 15.7826 44.1129C16.4608 45.3855 17.2227 46.6581 18.0682 47.8804C21.0571 52.2255 26.4153 58.1447 34.9633 61.6526C35.1893 61.7447 35.4237 61.7949 35.6582 61.7949C35.8926 61.7949 36.127 61.7531 36.353 61.661C42.5736 59.0991 47.1029 55.273 50.2592 51.6981C48.8611 51.6311 47.421 51.5223 45.9559 51.38C43.1847 54.0925 39.7689 56.5456 35.6582 58.3205ZM66.8193 34.5352C66.1998 33.9826 65.4882 33.4217 64.6844 32.8691C63.0519 31.7221 61.0677 30.5751 58.7988 29.47V12.1229C58.7988 11.1015 57.9783 10.2726 56.9737 10.2726C51.5736 10.2475 46.7345 8.79914 42.5819 5.96935C39.3587 3.77585 37.6256 1.45676 37.1651 0.795355C36.8219 0.301398 36.261 0 35.6582 0C35.0637 0 34.4944 0.293026 34.1512 0.786984C33.6907 1.44838 31.9493 3.76747 28.726 5.96098C24.565 8.79077 19.7176 10.2392 14.3259 10.2643C13.3212 10.2726 12.5008 11.1015 12.5008 12.1145V19.8671C11.4626 19.9341 10.4831 20.0262 9.56213 20.1518C7.49421 20.4281 5.73605 20.8467 4.30441 21.3992C1.87649 22.3453 0.461591 23.6681 0.0932158 25.3342C-0.258415 26.9249 0.394614 28.6328 2.01881 30.4244L2.02718 30.4328C2.06067 30.4663 2.08579 30.4998 2.11928 30.5333C3.63464 32.1575 5.92861 33.8152 8.94259 35.4645C9.14352 35.5733 9.35283 35.6905 9.56213 35.7994C10.684 36.3938 11.8896 36.9798 13.1538 37.5408C13.5222 38.9306 14.0412 40.3789 14.6859 41.8441C16.1761 42.4887 17.7501 43.1083 19.3994 43.7027C18.512 42.1622 17.792 40.6468 17.2394 39.2236C21.8692 40.9901 27.1102 42.5473 32.6274 43.7697C38.8228 45.1427 44.8843 45.9799 50.3011 46.2395C49.4555 47.4534 48.5094 48.659 47.4462 49.8311C48.8778 49.9483 50.2759 50.032 51.6239 50.0739C52.2267 49.312 52.7625 48.5753 53.2397 47.8804C53.5913 47.3697 53.9262 46.8506 54.2527 46.3232C55.4165 46.3148 56.53 46.2813 57.61 46.206C60.4146 46.0218 62.7923 45.6283 64.6928 45.0339C65.1114 44.8999 65.5049 44.7659 65.8733 44.6152C66.6017 44.3222 67.238 43.9873 67.7738 43.6273C67.4975 43.1585 67.1459 42.7064 66.7607 42.2794C66.2082 42.6478 65.5133 42.9743 64.6928 43.259C62.8761 43.8952 60.4314 44.339 57.5011 44.5315C56.7727 44.5818 56.0193 44.6153 55.2406 44.632C57.4844 40.5464 58.8072 36.3352 58.8072 33.07V31.337C61.1514 32.5258 63.144 33.7482 64.6928 34.9454C65.0612 35.2301 65.3961 35.5063 65.7142 35.791C67.0789 37.005 68.6277 38.7882 68.2761 40.3957C68.2175 40.6468 68.117 40.8813 67.9747 41.1157C68.4017 41.5762 68.7617 42.0366 69.0463 42.4887C69.4817 41.9613 69.7663 41.3836 69.9087 40.7557C70.3273 38.8301 69.2891 36.737 66.8193 34.5352ZM9.74632 33.9826C9.68771 33.9491 9.62073 33.9156 9.56213 33.8821C6.72397 32.3165 4.57232 30.7258 3.24115 29.2523C3.23278 29.2523 3.23278 29.2607 3.2244 29.2607C2.69696 28.7249 2.3537 28.1388 2.22812 27.9128C1.75928 27.1007 1.57509 26.3556 1.72579 25.6858C2.12765 23.8523 4.99093 22.4793 9.56213 21.8346C10.4747 21.709 11.4542 21.6085 12.5008 21.5416V33.0784C12.5008 33.8319 12.5761 34.644 12.7101 35.4896C11.6719 34.9956 10.6756 34.4933 9.74632 33.9826ZM55.4583 33.0784C55.4583 35.7324 54.1606 40.1027 51.3727 44.6069C45.8136 44.4143 39.4842 43.5687 32.9958 42.1287C27.0265 40.8059 21.392 39.098 16.5361 37.1473C16.0757 35.5733 15.8496 34.1752 15.8496 33.0784V13.5796C21.3334 13.3034 26.2897 11.6792 30.6181 8.73217C32.9372 7.1582 34.6033 5.49214 35.6665 4.27818C36.7214 5.49214 38.3875 7.14983 40.6982 8.73217C45.0182 11.6792 49.9745 13.3034 55.4583 13.5796V33.0784Z" fill="#005BFF"/>
<path d="M12.4756 25.3257C9.11838 25.535 6.36394 26.0541 4.30438 26.8578C3.50066 27.1676 2.80577 27.5276 2.22809 27.9211C2.47925 28.3564 2.82251 28.8001 3.24112 29.269C5.01602 28.0969 8.22256 27.3015 12.4756 27.0169V25.3257Z" fill="#06F3FF"/>
<path d="M2.21954 27.9136C2.34512 28.1396 2.69675 28.7257 3.21583 29.2615C3.2242 29.2615 3.2242 29.2531 3.23257 29.2531C2.82233 28.7927 2.47907 28.3489 2.21954 27.9136C2.22791 27.9136 2.22791 27.9136 2.21954 27.9136ZM69.0378 42.4895C68.7447 42.0374 68.3847 41.5769 67.9661 41.1165C67.6229 40.7481 67.2461 40.3714 66.8191 39.9946C64.9103 38.2951 62.1223 36.5453 58.6981 34.8792C58.6646 35.1053 58.5139 36.1099 58.4135 36.6122C61.4944 38.1444 63.9893 39.7267 65.7056 41.2504C66.0573 41.5602 66.4173 41.9118 66.7522 42.2802C67.1373 42.6988 67.4889 43.1593 67.7652 43.6281C68.1922 44.3565 68.4266 45.1267 68.2675 45.8551C67.7819 48.0403 63.7549 49.5891 57.5009 49.9993C55.6758 50.1165 53.7 50.1417 51.6237 50.0747C50.2757 50.0328 48.8776 49.9491 47.446 49.8319C42.9082 49.4551 38.0022 48.7016 32.9956 47.5882C28.1649 46.5165 23.5602 45.1937 19.4076 43.6951C17.7583 43.1007 16.1843 42.4811 14.6941 41.8365C12.9192 41.0662 11.2615 40.2625 9.75448 39.442C4.25397 36.4364 1.25674 33.3304 1.73395 31.1452C1.79256 30.8941 1.89302 30.6513 2.03535 30.4252L2.02698 30.4169C1.95163 30.3415 1.47442 29.8559 0.955341 29.0522C0.519989 29.5796 0.235336 30.1573 0.093009 30.7852C-0.266994 32.4094 0.419523 34.1592 2.12744 35.9843C3.6428 37.6085 5.93678 39.2662 8.95076 40.9155C10.9936 42.029 13.2959 43.109 15.7992 44.1137C17.3983 44.7584 19.0811 45.3779 20.8392 45.9723C24.523 47.2114 28.4998 48.3165 32.6356 49.2291C37.2235 50.2421 41.7361 50.9705 45.9641 51.3807C47.4376 51.5231 48.8776 51.6319 50.2674 51.6989C51.4981 51.7575 52.6869 51.791 53.8423 51.791C55.1483 51.791 56.4125 51.7491 57.6098 51.6738C61.034 51.4477 63.8135 50.9119 65.8731 50.0831C68.1922 49.1454 69.5485 47.8477 69.9085 46.2235C70.168 45.0346 69.875 43.7872 69.0378 42.4895Z" fill="#06F3FF"/>
<path d="M2.02711 30.4241C2.02711 30.4241 2.01874 30.4241 2.01874 30.4158C2.01874 30.4158 2.02711 30.4158 2.02711 30.4241Z" fill="#06F3FF"/>
</svg>
