<svg width="121" height="107" viewBox="0 0 121 107" fill="none" xmlns="http://www.w3.org/2000/svg">
<path d="M69.8842 14.9943C65.9164 12.2916 63.0556 9.43074 61.2442 7.34619C59.4328 9.43074 56.5575 12.2772 52.5753 14.9943C45.1428 20.0547 36.6321 22.8437 27.2157 23.3181V56.8003C27.2157 58.0223 27.3738 59.4455 27.7045 61.0269C27.7045 61.0269 31.8017 86.8178 61.2442 100.145C61.2442 100.145 82.6216 92.0508 92.0092 69.3795C94.1944 64.3909 95.2295 59.9199 95.2295 56.8003V23.3181C85.8131 22.8437 77.3024 20.0547 69.8842 14.9943Z" fill="white"/>
<path d="M75.5626 51.7542L81.96 38.0393H72.8598L66.4624 51.7542H75.5626ZM47.299 38.0393L40.9016 51.7542H50.0017L56.3991 38.0393H47.299ZM69.1795 38.0393H60.0794L53.682 51.7542H62.7821L69.1795 38.0393ZM29.6306 38.0393V51.7542H37.2212L43.6187 38.0393H29.6306ZM92.8284 51.7542V38.0393H85.6403L79.2429 51.7542H92.8284Z" fill="#E6E6E6"/>
<path d="M61.2301 100.145C49.6716 95.1417 41.3047 87.0479 35.7555 78.9397C32.7509 77.9334 29.8613 76.8551 27.101 75.7482C28.2655 77.9334 29.5737 80.1185 31.0257 82.2175C36.158 89.6787 45.3588 99.8427 60.0369 105.866C60.425 106.024 60.8276 106.111 61.2301 106.111C61.6326 106.111 62.0352 106.039 62.4233 105.881C73.1049 101.482 80.8824 94.9117 86.3022 88.773C83.9014 88.658 81.4287 88.4711 78.9128 88.2267C74.1543 92.8846 68.2888 97.0968 61.2301 100.145ZM114.738 59.3018C113.674 58.353 112.452 57.3898 111.072 56.4409C108.269 54.4714 104.862 52.5019 100.966 50.6042V20.8167C100.966 19.0628 99.557 17.6396 97.8319 17.6396C88.5593 17.5965 80.2498 15.1094 73.1192 10.2502C67.5844 6.48367 64.6085 2.50146 63.8178 1.36574C63.2284 0.517543 62.2652 0 61.2301 0C60.2094 0 59.2318 0.503168 58.6424 1.35136C57.8517 2.48708 54.8615 6.46929 49.3266 10.2359C42.1816 15.095 33.8578 17.5821 24.5996 17.6252C22.8744 17.6396 21.4656 19.0628 21.4656 20.8024V34.1147C19.6829 34.2297 18.0009 34.3879 16.4195 34.6035C12.8686 35.0779 9.84958 35.7967 7.39125 36.7456C3.22216 38.3701 0.79258 40.6415 0.160028 43.5024C-0.443772 46.2338 0.677571 49.1666 3.46655 52.2431L3.48093 52.2575C3.53843 52.315 3.58156 52.3725 3.63907 52.43C6.24116 55.219 10.1802 58.0655 15.3557 60.8976C15.7007 61.0845 16.0601 61.2857 16.4195 61.4726C18.3459 62.4933 20.4161 63.4997 22.5869 64.4629C23.2194 66.8493 24.1108 69.3364 25.2177 71.8522C27.7767 72.9592 30.4794 74.023 33.3115 75.0438C31.7877 72.3985 30.5513 69.7964 29.6025 67.3525C37.5525 70.3859 46.552 73.0598 56.0259 75.1588C66.6643 77.5165 77.0727 78.9541 86.3741 79.3997C84.9221 81.4843 83.2976 83.5545 81.4718 85.5671C83.9301 85.7684 86.3309 85.9122 88.6455 85.984C89.6806 84.6758 90.6007 83.4107 91.4201 82.2175C92.0239 81.3405 92.599 80.4492 93.1596 79.5435C95.1579 79.5291 97.07 79.4716 98.9245 79.3422C103.741 79.026 107.823 78.3503 111.087 77.3296C111.806 77.0995 112.481 76.8695 113.114 76.6108C114.365 76.1076 115.457 75.5325 116.377 74.9144C115.903 74.1093 115.299 73.333 114.638 72.5998C113.689 73.2324 112.496 73.793 111.087 74.2818C107.967 75.3744 103.769 76.1363 98.7376 76.467C97.4869 76.5532 96.193 76.6108 94.856 76.6395C98.7088 69.6239 100.98 62.3927 100.98 56.786V53.8101C105.006 55.8515 108.427 57.9504 111.087 60.0062C111.719 60.495 112.294 60.9695 112.841 61.4582C115.184 63.5428 117.844 66.6049 117.24 69.3652C117.139 69.7964 116.967 70.199 116.722 70.6015C117.455 71.3922 118.074 72.1829 118.562 72.9592C119.31 72.0535 119.799 71.0615 120.043 69.9833C120.762 66.6768 118.979 63.0828 114.738 59.3018ZM16.7358 58.353C16.6351 58.2955 16.5201 58.238 16.4195 58.1805C11.546 55.4921 7.85129 52.7607 5.56548 50.2304C5.5511 50.2304 5.5511 50.2448 5.53672 50.2448C4.63102 49.3247 4.0416 48.3184 3.82596 47.9302C3.02089 46.5358 2.70461 45.2563 2.96339 44.1062C3.65344 40.9578 8.5701 38.6001 16.4195 37.4931C17.9865 37.2775 19.6685 37.105 21.4656 36.99V56.8004C21.4656 58.0942 21.5949 59.4887 21.825 60.9407C20.0423 60.0925 18.3315 59.2299 16.7358 58.353ZM95.2298 56.8004C95.2298 61.3576 93.0015 68.862 88.2142 76.5964C78.6684 76.2657 67.8 74.8137 56.6585 72.341C46.4082 70.0696 36.7331 67.1368 28.3949 63.7872C27.6042 61.0845 27.216 58.6836 27.216 56.8004V23.3182C36.6324 22.8438 45.1431 20.0548 52.5756 14.9944C56.5578 12.2916 59.4187 9.43079 61.2445 7.34624C63.0559 9.43079 65.9167 12.2773 69.8846 14.9944C77.3027 20.0548 85.8134 22.8438 95.2298 23.3182V56.8004Z" fill="#005BFF"/>
<path d="M21.4224 43.4878C15.6575 43.8472 10.9278 44.7385 7.39122 46.1186C6.01111 46.6506 4.81789 47.2687 3.82593 47.9444C4.25721 48.692 4.84664 49.4539 5.56545 50.259C8.6132 48.2463 14.1193 46.8806 21.4224 46.3918V43.4878Z" fill="#06F3FF"/>
<path d="M3.81126 47.9314C4.02691 48.3196 4.63071 49.3259 5.52203 50.246C5.53641 50.246 5.53641 50.2316 5.55078 50.2316C4.84635 49.4409 4.25692 48.679 3.81126 47.9314C3.82564 47.9314 3.82564 47.9314 3.81126 47.9314ZM118.548 72.9604C118.045 72.184 117.426 71.3933 116.708 70.6027C116.118 69.9701 115.471 69.3232 114.738 68.6763C111.46 65.7579 106.673 62.7533 100.793 59.8924C100.736 60.2805 100.477 62.0057 100.304 62.8683C105.595 65.4991 109.879 68.2162 112.826 70.8327C113.43 71.3646 114.048 71.9684 114.623 72.601C115.284 73.3198 115.888 74.1105 116.362 74.9155C117.096 76.1662 117.498 77.4889 117.225 78.7396C116.391 82.4918 109.476 85.1514 98.7373 85.8558C95.6033 86.0571 92.2105 86.1002 88.6452 85.9852C86.3306 85.9133 83.9298 85.7696 81.4715 85.5683C73.6796 84.9214 65.2551 83.6275 56.6582 81.7155C48.3631 79.8753 40.4562 77.6039 33.3256 75.0305C30.4935 74.0098 27.7908 72.946 25.2318 71.839C22.184 70.5164 19.3376 69.1363 16.7498 67.7274C7.30468 62.5664 2.158 57.2328 2.97744 53.4806C3.07808 53.0493 3.25059 52.6324 3.49499 52.2443L3.48061 52.2299C3.35123 52.1005 2.53178 51.2667 1.64046 49.8866C0.892895 50.7923 0.404105 51.7842 0.15971 52.8624C-0.458467 55.6514 0.720381 58.656 3.65312 61.7901C6.25522 64.579 10.1943 67.4255 15.3697 70.2576C18.8775 72.1697 22.831 74.0242 27.1295 75.7493C29.8753 76.8563 32.7649 77.9201 35.7839 78.9409C42.1095 81.0685 48.9381 82.9662 56.04 84.5332C63.9181 86.2727 71.6669 87.5234 78.9269 88.2279C81.4571 88.4723 83.9298 88.6592 86.3162 88.7742C88.4296 88.8748 90.471 88.9323 92.4549 88.9323C94.6976 88.9323 96.8684 88.8604 98.9242 88.731C104.804 88.3429 109.577 87.4228 113.113 85.9996C117.096 84.3894 119.425 82.1611 120.043 79.3721C120.488 77.3307 119.985 75.1887 118.548 72.9604Z" fill="#06F3FF"/>
<path d="M3.48081 52.2424C3.48081 52.2424 3.46643 52.2424 3.46643 52.228C3.46643 52.228 3.48081 52.228 3.48081 52.2424Z" fill="#06F3FF"/>
</svg>
