<svg width="71" height="78" viewBox="0 0 71 78" fill="none" xmlns="http://www.w3.org/2000/svg">
<path d="M11.8156 34.507C11.8156 37.677 12.4399 40.8159 13.653 43.7446C14.8661 46.6733 16.6442 49.3343 18.8857 51.5758C21.1272 53.8173 23.7882 55.5954 26.7169 56.8085C29.6456 58.0216 32.7845 58.6459 35.9544 58.6459C39.1244 58.6459 42.2633 58.0216 45.192 56.8085C48.1207 55.5954 50.7817 53.8173 53.0232 51.5758C55.2647 49.3343 57.0428 46.6733 58.2559 43.7446C59.4689 40.8159 60.0933 37.677 60.0933 34.507C60.0933 28.105 57.5501 21.9652 53.0232 17.4383C48.4963 12.9114 42.3565 10.3682 35.9544 10.3682C29.5524 10.3682 23.4126 12.9114 18.8857 17.4383C14.3587 21.9652 11.8156 28.105 11.8156 34.507Z" fill="white"/>
<path d="M47.9335 73.2035L42.7099 61.5765C40.531 62.1188 38.2665 62.3947 35.964 62.3947C33.2998 62.3947 30.6928 62.0237 28.1999 61.3005L22.8336 73.2606L47.9335 73.2035Z" fill="#E6E6E6"/>
<path d="M63.8992 34.4595C63.8992 26.9999 60.9972 19.9876 55.7165 14.7164C50.4359 9.44525 43.433 6.53374 35.9735 6.53374C28.5139 6.53374 21.5015 9.43573 16.2304 14.7164C10.9592 19.9971 8.04771 26.9999 8.04771 34.4595C8.04771 41.919 10.9497 48.9314 16.2304 54.2026C18.6947 56.6669 21.5396 58.6174 24.6319 59.9875L18.3427 74.0027C18.0382 74.6783 18.0953 75.4585 18.5044 76.0769C18.904 76.6954 19.5891 77.0665 20.3312 77.0665H20.3407L50.6927 76.9904C51.0448 76.9904 51.3778 76.8857 51.6633 76.7239C52.5957 76.2863 53.0143 75.173 52.5862 74.2216L46.3731 60.3871C49.8364 58.998 53.0143 56.9143 55.7356 54.193C60.9972 48.9314 63.8992 41.919 63.8992 34.4595ZM47.9335 73.2035L22.8336 73.2606L28.1999 61.3006C30.6928 62.0142 33.2998 62.3948 35.9639 62.3948C38.2665 62.3948 40.531 62.1188 42.7099 61.5765L47.9335 73.2035ZM35.9735 58.5889C22.6719 58.5889 11.8536 47.7611 11.8536 34.4595C11.8536 21.1579 22.6719 10.3396 35.9735 10.3396C49.2751 10.3396 60.0933 21.1579 60.0933 34.4595C60.0933 47.7611 49.2751 58.5889 35.9735 58.5889ZM14.2133 10.4728C14.4321 10.4728 14.6605 10.3967 14.8412 10.235C15.3075 9.83535 15.7832 9.43573 16.2684 9.05515C16.6871 8.73164 16.7537 8.13222 16.4397 7.72308C16.1162 7.30443 15.5168 7.23783 15.1076 7.55182C14.5938 7.95144 14.0896 8.37008 13.5948 8.79825C13.1952 9.14078 13.1571 9.74972 13.4997 10.1398C13.6804 10.3682 13.9468 10.4728 14.2133 10.4728ZM9.6557 14.3644C9.83648 14.5071 10.0458 14.5737 10.2551 14.5737C10.5311 14.5737 10.807 14.45 10.9973 14.2216C11.3874 13.7459 11.787 13.2702 12.2057 12.823C12.5577 12.4329 12.5292 11.8334 12.139 11.4814C11.7489 11.1294 11.1495 11.1579 10.7975 11.548C10.3598 12.0333 9.93163 12.528 9.5225 13.0323C9.18948 13.4414 9.24657 14.0409 9.6557 14.3644ZM23.9183 4.58322C24.0325 4.58322 24.1466 4.56419 24.2608 4.51662C24.8317 4.29778 25.4121 4.08845 26.002 3.89816C26.5063 3.73641 26.7727 3.19407 26.611 2.6993C26.4492 2.20454 25.9069 1.92861 25.4121 2.09036C24.7936 2.29017 24.1752 2.50901 23.5758 2.74688C23.0905 2.93717 22.8431 3.48902 23.0334 3.98379C23.1761 4.35487 23.5377 4.58322 23.9183 4.58322ZM35.0791 2.32823C35.374 2.31871 35.6785 2.31871 35.9735 2.31871C36.2874 2.31871 36.6109 2.31871 36.9249 2.32823H36.9535C37.4673 2.32823 37.8859 1.91909 37.9049 1.4053C37.924 0.881987 37.5053 0.444309 36.982 0.42528C36.649 0.415765 36.3065 0.40625 35.9735 0.40625C35.6595 0.40625 35.336 0.406251 35.022 0.415765C34.4987 0.434795 34.08 0.872472 34.0991 1.39578C34.1086 1.92861 34.5462 2.34726 35.0791 2.32823ZM40.6071 2.65173C41.2161 2.73736 41.825 2.84202 42.4244 2.96571C42.491 2.97523 42.5481 2.98474 42.6147 2.98474C43.0619 2.98474 43.452 2.67076 43.5472 2.22357C43.6518 1.70977 43.3188 1.20549 42.805 1.10083C42.1675 0.96762 41.5205 0.862958 40.8735 0.76781C40.3502 0.691692 39.8745 1.05325 39.7984 1.57656C39.7223 2.09987 40.0838 2.57561 40.6071 2.65173ZM29.3797 2.97523C29.4463 2.97523 29.5034 2.96571 29.57 2.9562C30.1695 2.83251 30.7879 2.72785 31.3874 2.64221C31.9107 2.56609 32.2722 2.09036 32.1961 1.56705C32.12 1.04374 31.6443 0.682178 31.1209 0.758296C30.4739 0.853443 29.8269 0.958105 29.1895 1.09131C28.6757 1.19597 28.3426 1.70025 28.4473 2.21405C28.5424 2.66124 28.9421 2.97523 29.3797 2.97523ZM18.8089 7.11414C18.9801 7.11414 19.1514 7.06656 19.3036 6.97142C19.827 6.65743 20.3693 6.34345 20.9116 6.058C21.3779 5.81062 21.5491 5.23974 21.3017 4.77351C21.0544 4.30729 20.4835 4.13603 20.0172 4.38341C19.4464 4.68788 18.8755 5.01138 18.3141 5.35391C17.8669 5.62984 17.7242 6.21024 17.9906 6.65743C18.1809 6.94287 18.4949 7.11414 18.8089 7.11414ZM55.7356 9.10272C56.2208 9.48331 56.6965 9.87341 57.1628 10.2825C57.3435 10.4443 57.5624 10.5204 57.7907 10.5204C58.0572 10.5204 58.314 10.4062 58.5043 10.1969C58.8469 9.79729 58.8088 9.19787 58.4187 8.85534C57.9335 8.42717 57.4197 8.00852 56.9154 7.6089C56.4967 7.2854 55.9068 7.36152 55.5833 7.77066C55.2408 8.1893 55.3169 8.77922 55.7356 9.10272ZM51.0924 6.08655C51.6347 6.37199 52.177 6.68598 52.7004 6.99996C52.8526 7.09511 53.0239 7.14268 53.1951 7.14268C53.5186 7.14268 53.8326 6.98093 54.0039 6.68598C54.2798 6.23878 54.1371 5.64887 53.6899 5.38246C53.138 5.03993 52.5671 4.71643 51.9867 4.41195C51.5205 4.16457 50.9496 4.33584 50.7023 4.80206C50.4549 5.25876 50.6262 5.83916 51.0924 6.08655ZM8.54248 15.9153C8.09529 15.6298 7.51489 15.763 7.22944 16.2102C6.8774 16.7621 6.54438 17.3235 6.2304 17.8943C5.9735 18.351 6.13525 18.9314 6.60147 19.1883C6.74419 19.274 6.90594 19.312 7.06769 19.312C7.40071 19.312 7.72421 19.1408 7.89548 18.8268C8.19043 18.294 8.51393 17.7611 8.84695 17.2378C9.11336 16.7811 8.98967 16.1912 8.54248 15.9153ZM45.9925 3.90767C46.5729 4.09797 47.1628 4.30729 47.7337 4.53565C47.8478 4.58322 47.962 4.60225 48.0857 4.60225C48.4663 4.60225 48.8279 4.3739 48.9706 4.00282C49.1609 3.51757 48.923 2.96571 48.4378 2.7659C47.8288 2.52804 47.2104 2.3092 46.5919 2.09987C46.0971 1.93812 45.5548 2.20453 45.393 2.70882C45.2218 3.2131 45.4977 3.74592 45.9925 3.90767ZM60.9972 14.2787C61.1875 14.5071 61.4634 14.6308 61.7394 14.6308C61.9487 14.6308 62.158 14.5642 62.3388 14.4215C62.7479 14.0884 62.8145 13.489 62.4815 13.0799C62.0724 12.5756 61.6442 12.0713 61.2065 11.5956C60.8545 11.2055 60.2551 11.1769 59.865 11.529C59.4749 11.881 59.4463 12.4804 59.7984 12.8706C60.2075 13.3273 60.6071 13.803 60.9972 14.2787ZM65.7546 17.9419C65.4406 17.371 65.1076 16.8097 64.7555 16.2578C64.4701 15.8106 63.8897 15.6774 63.4425 15.9628C62.9953 16.2483 62.8621 16.8287 63.1475 17.2759C63.4806 17.7992 63.7945 18.332 64.0895 18.8648C64.2608 19.1788 64.5843 19.3501 64.9173 19.3501C65.0695 19.3501 65.2313 19.312 65.374 19.2264C65.8402 18.979 66.0115 18.3986 65.7546 17.9419ZM6.19234 22.3472C6.22088 22.2806 6.24943 22.2045 6.27797 22.1379C6.47778 21.6527 6.24943 21.0913 5.76418 20.8915C5.27892 20.6917 4.71755 20.92 4.51774 21.4053C4.47969 21.4909 4.44163 21.5861 4.41308 21.6717C3.74705 21.7859 3.15714 22.2426 2.91927 22.9181C1.62527 26.6193 0.96875 30.5014 0.96875 34.4595C0.96875 37.8563 1.454 41.2245 2.41499 44.45C2.66237 45.2777 3.41404 45.8106 4.24182 45.8106C4.4226 45.8106 4.60338 45.782 4.78416 45.7344C5.79272 45.4395 6.3636 44.3738 6.06865 43.3653C5.21232 40.4918 4.77464 37.4947 4.77464 34.4595C4.77464 30.9295 5.35504 27.4757 6.50632 24.1741C6.74419 23.5271 6.59196 22.842 6.19234 22.3472ZM69.0276 22.9276C68.7898 22.2426 68.1999 21.7859 67.5338 21.6812C67.5053 21.6146 67.4767 21.5385 67.4482 21.4719C67.2484 20.9866 66.687 20.7583 66.2018 20.9581C65.7165 21.1579 65.4882 21.7193 65.688 22.2045C65.707 22.2616 65.726 22.3092 65.7546 22.3663C65.355 22.861 65.2027 23.5461 65.4311 24.1931C66.5824 27.4852 67.1628 30.9485 67.1628 34.4785C67.1628 37.5137 66.7251 40.5109 65.8687 43.3843C65.5738 44.3929 66.1447 45.449 67.1532 45.7535C67.334 45.8106 67.5148 45.8296 67.6956 45.8296C68.5139 45.8296 69.275 45.2968 69.5224 44.469C70.4834 41.234 70.9686 37.8753 70.9686 34.4785C70.9782 30.5109 70.3217 26.6289 69.0276 22.9276Z" fill="#005BFF"/>
<path d="M35.9735 14.7163C25.0791 14.7163 16.2209 23.5745 16.2209 34.4689C16.2209 45.3633 25.0791 54.2215 35.9735 54.2215C46.8679 54.2215 55.7261 45.3633 55.7261 34.4689C55.7261 23.5745 46.8679 14.7163 35.9735 14.7163ZM35.9735 52.309C26.1352 52.309 18.1238 44.3071 18.1238 34.4594C18.1238 24.6211 26.1257 16.6097 35.9735 16.6097C45.8117 16.6097 53.8231 24.6116 53.8231 34.4594C53.8231 44.3071 45.8117 52.309 35.9735 52.309Z" fill="#06F3FF"/>
<path d="M43.9087 35.9247L43.3093 37.1616L41.0353 30.5203C40.9401 30.2253 40.6547 30.035 40.3502 30.035H40.3407C40.0267 30.0446 39.7603 30.2444 39.6652 30.5488L35.8022 43.1654L34.0705 20.9199C34.0419 20.5584 33.7565 20.2729 33.3949 20.2539C33.0619 20.1968 32.7099 20.4822 32.6433 20.8343L29.4083 37.3043L27.9525 34.6592C27.8574 34.4879 27.6861 34.3547 27.4958 34.3072C27.3055 34.2596 27.0962 34.2976 26.9249 34.4023L23.452 36.7049L22.8336 36.5431C22.4435 36.4289 22.0534 36.6668 21.9487 37.0569C21.8441 37.4375 22.0724 37.8371 22.4625 37.9418L23.3854 38.1892C23.5948 38.2463 23.7946 38.2082 23.9658 38.094L27.0676 36.0388L29.1038 39.7306C29.2465 39.997 29.5415 40.1397 29.8459 40.0921C30.1409 40.0445 30.3788 39.8162 30.4454 39.5212L33.0524 26.2672L34.6699 47.0569C34.6985 47.3994 34.9649 47.6754 35.3074 47.7229C35.336 47.7324 35.3645 47.7324 35.3835 47.7324C35.6975 47.7324 35.983 47.5231 36.0686 47.2187L40.3883 33.0988L42.5291 39.3024C42.6242 39.5783 42.8716 39.7686 43.1666 39.7876C43.452 39.7972 43.7279 39.6354 43.8516 39.3785L44.9934 36.9808L49.9125 37.2282C50.3312 37.2853 50.6452 36.9427 50.6642 36.5431C50.6832 36.1435 50.3787 35.8105 49.9791 35.7915L44.5843 35.5155C44.3083 35.506 44.0324 35.6678 43.9087 35.9247Z" fill="#005BFF"/>
</svg>
