<svg width="122" height="133" viewBox="0 0 122 133" fill="none" xmlns="http://www.w3.org/2000/svg">
<path d="M19.5942 58.9621C19.5942 64.4054 20.6664 69.7954 22.7494 74.8243C24.8325 79.8532 27.8857 84.4226 31.7346 88.2716C35.5836 92.1206 40.153 95.1738 45.182 97.2568C50.2109 99.3399 55.6009 100.412 61.0441 100.412C66.4874 100.412 71.8774 99.3399 76.9063 97.2568C81.9353 95.1738 86.5047 92.1206 90.3537 88.2716C94.2026 84.4226 97.2558 79.8532 99.3389 74.8243C101.422 69.7954 102.494 64.4054 102.494 58.9621C102.494 47.9689 98.127 37.426 90.3537 29.6526C82.5803 21.8792 72.0373 17.5122 61.0441 17.5122C50.0509 17.5122 39.508 21.8792 31.7346 29.6526C23.9613 37.426 19.5942 47.9689 19.5942 58.9621Z" fill="white"/>
<path d="M81.6139 125.409L72.6443 105.444C68.9028 106.376 65.0144 106.849 61.0605 106.849C56.4858 106.849 52.0092 106.212 47.7286 104.97L38.5139 125.508L81.6139 125.409Z" fill="#E6E6E6"/>
<path d="M109.029 58.8805C109.029 46.0714 104.046 34.0302 94.9785 24.9788C85.9108 15.9275 73.8859 10.928 61.0768 10.928C48.2677 10.928 36.2265 15.9112 27.1752 24.9788C18.1238 34.0465 13.1243 46.0714 13.1243 58.8805C13.1243 71.6896 18.1075 83.7309 27.1752 92.7822C31.4067 97.0138 36.2918 100.363 41.6017 102.716L30.8022 126.782C30.2794 127.942 30.3774 129.282 31.08 130.344C31.7662 131.406 32.9425 132.043 34.2169 132.043H34.2332L86.352 131.912C86.9565 131.912 87.5283 131.732 88.0185 131.455C89.6196 130.703 90.3385 128.792 89.6033 127.158L78.9344 103.402C84.8815 101.017 90.3385 97.4386 95.0112 92.7659C104.046 83.7309 109.029 71.6896 109.029 58.8805ZM81.6139 125.41L38.5138 125.508L47.7286 104.97C52.0092 106.196 56.4858 106.849 61.0605 106.849C65.0143 106.849 68.9028 106.376 72.6442 105.444L81.6139 125.41ZM61.0768 100.314C38.2361 100.314 19.6596 81.7213 19.6596 58.8805C19.6596 36.0398 38.2361 17.4633 61.0768 17.4633C83.9176 17.4633 102.494 36.0398 102.494 58.8805C102.494 81.7213 83.9176 100.314 61.0768 100.314ZM23.7115 17.692C24.0872 17.692 24.4794 17.5613 24.7898 17.2836C25.5904 16.5974 26.4073 15.9112 27.2405 15.2576C27.9594 14.7021 28.0738 13.6728 27.5346 12.9703C26.9791 12.2514 25.9498 12.137 25.2473 12.6762C24.365 13.3624 23.4991 14.0813 22.6495 14.8165C21.9633 15.4047 21.8979 16.4503 22.4861 17.1202C22.7965 17.5123 23.254 17.692 23.7115 17.692ZM15.8855 24.3743C16.1959 24.6194 16.5554 24.7338 16.9148 24.7338C17.3886 24.7338 17.8624 24.5214 18.1892 24.1293C18.859 23.3123 19.5452 22.4954 20.2641 21.7275C20.8686 21.0577 20.8196 20.0284 20.1497 19.4239C19.4799 18.8194 18.4506 18.8684 17.8461 19.5382C17.0945 20.3715 16.3593 21.2211 15.6568 22.087C15.0849 22.7895 15.1829 23.8188 15.8855 24.3743ZM40.3764 7.5787C40.5724 7.5787 40.7685 7.54603 40.9646 7.46433C41.9448 7.08856 42.9415 6.72912 43.9544 6.40235C44.8204 6.12461 45.2778 5.19333 45.0001 4.34375C44.7223 3.49416 43.7911 3.02036 42.9415 3.29811C41.8795 3.64121 40.8175 4.01698 39.7882 4.42544C38.955 4.7522 38.5302 5.69981 38.8569 6.5494C39.102 7.18659 39.7229 7.5787 40.3764 7.5787ZM59.541 3.70656C60.0475 3.69022 60.5703 3.69022 61.0768 3.69022C61.616 3.69022 62.1715 3.69022 62.7106 3.70656H62.7597C63.6419 3.70656 64.3608 3.00402 64.3935 2.12176C64.4262 1.22316 63.7073 0.471603 62.8087 0.438927C62.2368 0.422589 61.6487 0.40625 61.0768 0.40625C60.5377 0.40625 59.9822 0.406251 59.443 0.422589C58.5444 0.455265 57.8255 1.20682 57.8582 2.10542C57.8745 3.02036 58.6261 3.73924 59.541 3.70656ZM69.0335 4.26206C70.0792 4.4091 71.1248 4.58882 72.1541 4.80122C72.2685 4.81755 72.3665 4.83389 72.4809 4.83389C73.2488 4.83389 73.9186 4.29473 74.082 3.52684C74.2617 2.64458 73.6899 1.77866 72.8076 1.59894C71.713 1.3702 70.602 1.19048 69.491 1.0271C68.5924 0.896395 67.7755 1.51725 67.6448 2.41584C67.5141 3.31444 68.1349 4.13135 69.0335 4.26206ZM49.7545 4.81755C49.8689 4.81755 49.9669 4.80122 50.0813 4.78488C51.1106 4.57248 52.1725 4.39276 53.2018 4.24572C54.1004 4.11501 54.7213 3.29811 54.5906 2.39951C54.4599 1.50091 53.643 0.880057 52.7444 1.01076C51.6334 1.17414 50.5224 1.35386 49.4277 1.5826C48.5455 1.76232 47.9736 2.62824 48.1533 3.5105C48.3167 4.27839 49.0029 4.81755 49.7545 4.81755ZM31.6028 11.9247C31.8969 11.9247 32.191 11.843 32.4524 11.6796C33.351 11.1404 34.2823 10.6013 35.2135 10.1111C36.0141 9.68633 36.3082 8.70604 35.8834 7.90547C35.4586 7.1049 34.4783 6.81081 33.6777 7.2356C32.6974 7.75842 31.7172 8.31392 30.7532 8.90209C29.9853 9.3759 29.7402 10.3725 30.1977 11.1404C30.5245 11.6306 31.0636 11.9247 31.6028 11.9247ZM95.0112 15.3393C95.8444 15.9929 96.6613 16.6627 97.4619 17.3653C97.7723 17.643 98.1481 17.7737 98.5402 17.7737C98.9977 17.7737 99.4388 17.5777 99.7656 17.2182C100.354 16.532 100.288 15.5027 99.6186 14.9145C98.7853 14.1793 97.903 13.4604 97.0371 12.7742C96.3182 12.2187 95.3053 12.3494 94.7498 13.052C94.1616 13.7709 94.2923 14.7838 95.0112 15.3393ZM87.0382 10.1601C87.9694 10.6503 88.9007 11.1894 89.7993 11.7286C90.0607 11.892 90.3548 11.9737 90.6489 11.9737C91.2044 11.9737 91.7436 11.6959 92.0376 11.1894C92.5115 10.4215 92.2664 9.40858 91.4985 8.95111C90.5509 8.36293 89.5706 7.80744 88.5739 7.28462C87.7734 6.85982 86.7931 7.15391 86.3683 7.95448C85.9435 8.73871 86.2376 9.73534 87.0382 10.1601ZM13.9739 27.0375C13.206 26.5473 12.2094 26.776 11.7193 27.5439C11.1147 28.4915 10.5429 29.4555 10.0037 30.4358C9.56262 31.22 9.84037 32.2166 10.6409 32.6578C10.886 32.8048 11.1638 32.8702 11.4415 32.8702C12.0133 32.8702 12.5688 32.5761 12.8629 32.0369C13.3694 31.122 13.9249 30.2071 14.4967 29.3085C14.9542 28.5242 14.7418 27.5113 13.9739 27.0375ZM78.2809 6.41869C79.2775 6.74546 80.2905 7.1049 81.2708 7.49701C81.4669 7.5787 81.6629 7.61138 81.8753 7.61138C82.5288 7.61138 83.1497 7.21926 83.3948 6.58207C83.7215 5.74883 83.3131 4.80122 82.4798 4.45811C81.4342 4.04966 80.3722 3.67388 79.3102 3.31444C78.4606 3.03669 77.5294 3.49416 77.2516 4.36008C76.9575 5.22601 77.4313 6.14094 78.2809 6.41869ZM104.046 24.2273C104.373 24.6194 104.847 24.8318 105.321 24.8318C105.68 24.8318 106.039 24.7174 106.35 24.4724C107.052 23.9005 107.167 22.8712 106.595 22.1687C105.892 21.3028 105.157 20.4368 104.406 19.6199C103.801 18.9501 102.772 18.901 102.102 19.5056C101.432 20.1101 101.383 21.1394 101.988 21.8092C102.69 22.5935 103.376 23.4104 104.046 24.2273ZM112.215 30.5175C111.676 29.5372 111.104 28.5732 110.5 27.6256C110.01 26.8577 109.013 26.629 108.245 27.1191C107.477 27.6093 107.248 28.6059 107.739 29.3738C108.31 30.2724 108.85 31.1873 109.356 32.1023C109.65 32.6414 110.206 32.9355 110.778 32.9355C111.039 32.9355 111.317 32.8702 111.562 32.7231C112.362 32.2983 112.656 31.3017 112.215 30.5175ZM9.9384 38.082C9.98741 37.9677 10.0364 37.837 10.0854 37.7226C10.4285 36.8894 10.0364 35.9254 9.20318 35.5823C8.36993 35.2392 7.40598 35.6313 7.06288 36.4646C6.99753 36.6116 6.93218 36.775 6.88316 36.922C5.73949 37.1181 4.72653 37.9023 4.31807 39.0623C2.09608 45.4179 0.96875 52.0839 0.96875 58.8805C0.96875 64.7132 1.802 70.4969 3.45215 76.0356C3.87694 77.457 5.16766 78.3719 6.58908 78.3719C6.8995 78.3719 7.20992 78.3229 7.52035 78.2412C9.25219 77.7347 10.2325 75.9049 9.726 74.173C8.25557 69.2389 7.50401 64.0924 7.50401 58.8805C7.50401 52.8191 8.50064 46.8883 10.4776 41.219C10.886 40.108 10.6246 38.9316 9.9384 38.082ZM117.836 39.0787C117.427 37.9023 116.414 37.1181 115.271 36.9384C115.221 36.824 115.172 36.6933 115.123 36.5789C114.78 35.7457 113.816 35.3536 112.983 35.6967C112.15 36.0398 111.758 37.0037 112.101 37.837C112.134 37.935 112.166 38.0167 112.215 38.1147C111.529 38.9643 111.268 40.1407 111.66 41.2517C113.637 46.9047 114.633 52.8517 114.633 58.9132C114.633 64.1251 113.882 69.2716 112.411 74.2057C111.905 75.9376 112.885 77.7511 114.617 78.2739C114.927 78.3719 115.238 78.4046 115.548 78.4046C116.953 78.4046 118.26 77.4897 118.685 76.0683C120.335 70.5133 121.169 64.7459 121.169 58.9132C121.185 52.1002 120.058 45.4342 117.836 39.0787Z" fill="#005BFF"/>
<path d="M61.0768 24.9788C42.3696 24.9788 27.1588 40.1896 27.1588 58.8968C27.1588 77.604 42.3696 92.8148 61.0768 92.8148C79.784 92.8148 94.9949 77.604 94.9949 58.8968C94.9949 40.1896 79.784 24.9788 61.0768 24.9788ZM61.0768 89.5308C44.1832 89.5308 30.4264 75.7904 30.4264 58.8804C30.4264 41.9868 44.1668 28.2301 61.0768 28.2301C77.9705 28.2301 91.7272 41.9704 91.7272 58.8804C91.7272 75.7904 77.9705 89.5308 61.0768 89.5308Z" fill="#06F3FF"/>
<path d="M74.7029 61.3966L73.6735 63.5206L69.7687 52.1165C69.6054 51.61 69.1152 51.2833 68.5924 51.2833H68.576C68.0369 51.2996 67.5794 51.6427 67.416 52.1655L60.7827 73.8299L57.8092 35.6313C57.7602 35.0105 57.27 34.5203 56.6492 34.4876C56.0774 34.3896 55.4728 34.8798 55.3585 35.4843L49.8035 63.7656L47.3038 59.2236C47.1404 58.9295 46.8463 58.7008 46.5195 58.6191C46.1928 58.5374 45.8333 58.6028 45.5392 58.7825L39.5758 62.7363L38.5138 62.4586C37.844 62.2625 37.1741 62.671 36.9944 63.3408C36.8147 63.9944 37.2068 64.6806 37.8766 64.8603L39.4614 65.2851C39.8209 65.3831 40.164 65.3177 40.4581 65.1217L45.7843 61.5926L49.2807 67.9319C49.5258 68.3893 50.0322 68.6344 50.5551 68.5527C51.0615 68.471 51.47 68.0789 51.5844 67.5724L56.061 44.8134L58.8385 80.5122C58.8875 81.1004 59.345 81.5742 59.9332 81.6559C59.9822 81.6722 60.0312 81.6722 60.0639 81.6722C60.603 81.6722 61.0932 81.3128 61.2402 80.79L68.6577 56.5442L72.3338 67.1966C72.4972 67.6704 72.922 67.9972 73.4285 68.0299C73.9186 68.0462 74.3924 67.7685 74.6048 67.3273L76.5654 63.2101L85.0122 63.6349C85.7311 63.7329 86.2703 63.1448 86.303 62.4586C86.3356 61.7724 85.8128 61.2005 85.1266 61.1679L75.8629 60.6941C75.3891 60.6777 74.9153 60.9555 74.7029 61.3966Z" fill="#005BFF"/>
</svg>
